<svg width="212.873" height="35" viewBox="0 0 212.873 35" xmlns="http://www.w3.org/2000/svg"><path d="M7.177 3.205h2.746V13.61H7.177V9.644H3.71v3.966H.963V3.205H3.71V7.3h3.468V3.205zm7.708 8.912q.353 0 .602-.16.249-.161.41-.426.16-.265.224-.61.064-.346.064-.715v-.594q-.722.032-1.196.144-.474.113-.755.297-.28.185-.401.434-.12.249-.12.538 0 .482.329.787.329.305.843.305zm-1.156 1.718q-.595 0-1.044-.2-.45-.202-.763-.523-.313-.32-.474-.738-.16-.418-.16-.835 0-1.028.466-1.63.465-.602 1.188-.923.722-.321 1.59-.434.866-.112 1.653-.144V7.83q0-.546-.289-.843-.289-.297-.899-.297-.37 0-.618.112-.249.112-.386.297-.136.185-.168.425-.032.241.016.498h-2.184q-.08-.562.064-1.084.145-.521.562-.923.418-.401 1.149-.642.73-.241 1.822-.241 1.076 0 1.774.209.699.208 1.092.594.393.385.546.915.153.53.153 1.172v5.588h-2.553v-.096q0-.225.08-.522.08-.297.176-.602l-.208-.113q-.16.321-.378.602-.216.281-.53.49-.313.209-.722.337-.41.129-.955.129zm13.182-2.44q0 .61-.273 1.067-.273.458-.77.763-.498.305-1.197.457-.698.153-1.565.153-.803 0-1.47-.185-.666-.185-1.131-.546-.466-.361-.675-.907-.209-.546-.064-1.285h2.055q-.096.595.297.892.394.297 1.004.297.514 0 .875-.233t.361-.715q0-.497-.353-.642-.353-.144-.835-.144h-.963V8.68h.947q.466 0 .787-.201.32-.2.32-.667 0-.465-.328-.682-.33-.217-.795-.217-.257 0-.506.057-.249.056-.425.184-.177.129-.273.33-.097.2-.049.505h-1.99q-.145-.722.048-1.26.192-.538.65-.891.457-.354 1.148-.53.69-.177 1.541-.177.707 0 1.341.128.634.129 1.116.41.482.28.77.706.29.426.29 1.004 0 .417-.137.739-.136.32-.369.562-.233.24-.53.393-.297.152-.634.217v.208q.819.145 1.3.643.482.497.482 1.252zm5.026 2.456q-2.071 0-3.147-1.116-1.076-1.116-1.076-3.236 0-2.119 1.076-3.243 1.076-1.124 3.147-1.124 2.04 0 3.115 1.124 1.076 1.124 1.076 3.243 0 2.12-1.076 3.236t-3.115 1.116zm0-1.702q.353 0 .618-.129.265-.128.442-.425.176-.297.265-.811.088-.514.088-1.285 0-.754-.088-1.26-.089-.506-.265-.819-.177-.313-.442-.45-.265-.136-.618-.136-.37 0-.642.137-.273.136-.45.45-.177.312-.265.818-.088.506-.088 1.26 0 .771.088 1.285.088.514.265.81.177.298.45.426.273.129.642.129zm5.475 1.461V5.373h4.063q1.397 0 2.216.457.818.458.818 1.582 0 .273-.104.562-.104.29-.321.546-.217.257-.57.45-.353.192-.851.289v.192q.61.032 1.028.217.417.185.666.45.249.265.353.578.105.313.105.618 0 .69-.281 1.132-.281.441-.747.698-.466.257-1.092.362-.626.104-1.317.104h-3.966zm2.553-1.654h1.285q.466 0 .747-.193.28-.192.28-.626 0-.45-.313-.626-.313-.177-.682-.177h-1.317v1.622zm0-3.275h.98q.417 0 .722-.217t.305-.667q0-.433-.264-.61-.265-.176-.635-.176h-1.108v1.67zm11.272 2.183h2.28q.08.707-.144 1.253-.225.546-.707.931-.481.385-1.212.586-.73.2-1.646.2-1.076 0-1.854-.312-.78-.313-1.277-.875-.498-.562-.739-1.333-.24-.77-.24-1.702 0-.915.232-1.726.233-.811.74-1.43.505-.617 1.292-.97.786-.354 1.894-.354 1.06 0 1.783.297.722.297 1.164.803.441.506.626 1.164.185.658.185 1.38 0 .226-.016.611t-.065.658h-5.106q0 .45.08.843.08.394.257.69.177.298.458.474.281.177.699.177.642 0 1.011-.305.37-.305.305-1.06zM49.921 6.69q-.739 0-1.108.513-.37.514-.386 1.397h2.762v-.08q0-.915-.273-1.373-.273-.457-.995-.457zm8.622 6.005l-.658-2.666q-.193-.77-.313-1.509-.12-.739-.169-1.3h-.209q.032.272.048.714.017.441.017 1.003 0 .562-.025 1.22-.024.66-.088 1.366l-.177 2.087h-2.472l.594-8.237h3.613l.706 3.211q.064.337.129.699.064.361.112.682.048.321.08.602.032.281.032.442h.241q0-.16.032-.442.032-.28.08-.602l.105-.682q.056-.362.136-.699l.707-3.211h3.613l.594 8.237h-2.473l-.177-2.087q-.064-.707-.088-1.365-.024-.659-.024-1.22 0-.563.016-1.004.016-.442.048-.715h-.208q-.049.562-.169 1.301-.12.739-.313 1.51l-.658 2.665h-2.682zm18.401-2.328q.08.738-.072 1.372-.153.635-.578 1.1-.426.466-1.124.73-.699.266-1.694.266-.98 0-1.774-.257-.795-.257-1.35-.795-.553-.538-.85-1.357-.297-.819-.297-1.943 0-1.108.297-1.926.297-.82.85-1.357.555-.538 1.35-.803.794-.265 1.774-.265 1.846 0 2.738.907.89.907.698 2.513h-2.216q.097-.514.016-.843-.08-.329-.257-.522-.176-.192-.433-.265-.257-.072-.546-.072-.385 0-.675.12-.289.12-.465.426-.177.305-.265.81-.088.507-.088 1.277 0 .803.096 1.317.096.514.28.81.186.298.475.41.289.113.674.113.24 0 .49-.064.249-.065.441-.25.193-.184.281-.53.089-.344.008-.922h2.216zm4.464 1.38q.016-.224.08-.69.064-.466.185-1.108.12-.642.297-1.421t.417-1.63l.418-1.525h2.601l-3.324 11.095h-2.761l.594-1.814-2.778-9.281h2.665l.418 1.477q.24.867.417 1.662.177.795.297 1.445t.177 1.116q.056.466.056.674h.24zm8.526.948l-.658-2.666q-.193-.77-.313-1.509-.12-.739-.169-1.3h-.209q.032.272.048.714.017.441.017 1.003 0 .562-.025 1.22-.024.66-.088 1.366l-.176 2.087h-2.473l.594-8.237h3.613l.706 3.211q.064.337.129.699.064.361.112.682.048.321.08.602.032.281.032.442h.241q0-.16.032-.442.032-.28.08-.602l.105-.682q.056-.362.137-.699l.706-3.211h3.613l.594 8.237h-2.473l-.176-2.087q-.065-.707-.089-1.365-.024-.659-.024-1.22 0-.563.016-1.004.016-.442.048-.715h-.208q-.049.562-.169 1.301-.12.739-.313 1.51l-.658 2.665h-2.682zm11.898 0l-.658-2.666q-.193-.77-.313-1.509-.12-.739-.169-1.3h-.209q.033.272.049.714.016.441.016 1.003 0 .562-.024 1.22-.025.66-.089 1.366l-.176 2.087h-2.473l.594-8.237h3.613l.706 3.211q.064.337.129.699.064.361.112.682.048.321.08.602.032.281.032.442h.241q0-.16.032-.442.033-.28.08-.602l.105-.682q.056-.362.137-.699l.706-3.211h3.613l.594 8.237h-2.473l-.176-2.087q-.065-.707-.089-1.365-.024-.659-.024-1.22 0-.563.016-1.004.016-.442.048-.715h-.208q-.048.562-.169 1.301-.12.739-.313 1.51l-.658 2.665h-2.682zm11.48-.948q.017-.224.081-.69.064-.466.185-1.108.12-.642.297-1.421.176-.779.417-1.63l.418-1.525h2.6l-3.323 11.095h-2.762l.594-1.814-2.777-9.281h2.665l.418 1.477q.24.867.417 1.662.177.795.297 1.445t.177 1.116q.056.466.056.674h.24zM3.436 31.27H.803v-8.237h2.633V26.1h.642q.257 0 .394-.12.136-.121.249-.458.048-.145.168-.482.12-.337.281-.723.16-.385.321-.738t.306-.546H8.59q-.273.273-.465.626-.193.353-.337.739-.145.385-.29.786-.144.402-.32.755-.241.482-.555.715-.313.232-.826.345v.144q.61.113.923.37.313.257.522.803.273.722.618 1.533.345.81.827 1.421h-2.89q-.129-.16-.281-.498-.153-.337-.29-.722-.136-.386-.24-.73-.105-.346-.153-.539-.064-.273-.217-.433-.152-.16-.473-.16h-.707v3.082zm10.148-1.413q.61 0 1.012-.626.401-.626.401-2.055 0-1.446-.401-2.072-.402-.626-1.012-.626-.626 0-1.028.626-.401.626-.401 2.072 0 1.429.401 2.055.402.626 1.028.626zm.98-7.065q1.493 0 2.344 1.132.85 1.132.85 3.252 0 1.091-.248 1.902-.249.811-.682 1.349-.434.538-1.02.803-.586.265-1.26.265-.514 0-.916-.16-.401-.161-.698-.394-.297-.233-.49-.482-.193-.249-.289-.441l-.257.096q.129.37.217.779.088.41.088.827v2.408H9.57V23.033h2.633v.096q0 .225-.048.522-.048.297-.145.602l.241.113q.193-.322.402-.61.208-.29.49-.506.28-.217.626-.338.345-.12.795-.12zm9.778 5.732h2.28q.08.707-.144 1.253-.225.546-.707.931t-1.212.586q-.73.2-1.646.2-1.076 0-1.855-.312-.778-.313-1.276-.875t-.739-1.333q-.24-.77-.24-1.702 0-.915.232-1.726.233-.811.739-1.43.506-.617 1.293-.97.786-.354 1.894-.354 1.06 0 1.783.297.722.297 1.164.803.441.506.626 1.164.185.658.185 1.38 0 .226-.017.611-.016.385-.064.658h-5.106q0 .45.08.843.08.394.257.69.177.298.458.474.281.177.698.177.643 0 1.012-.305.37-.305.305-1.06zm-1.317-4.174q-.738 0-1.107.513-.37.514-.386 1.397h2.762v-.08q0-.915-.273-1.373-.273-.457-.996-.457zm12.364 4.833h.867v4.078h-2.424V31.27h-4.207v1.991H27.2v-4.078h.129q.497 0 .794-.394.298-.393.45-.987.153-.594.193-1.3.04-.707.04-1.35v-2.12h6.583v6.15zm-5.491 0h2.858V25.12h-1.574q0 .915-.04 1.566-.04.65-.176 1.108-.137.457-.394.746-.257.29-.674.482v.16zm10.758 2.087H37.3v-8.237h2.537v2.457q0 .45-.04 1.011-.04.562-.089 1.116-.048.554-.112 1.02-.064.465-.112.722l.208.032q.065-.24.201-.69.137-.45.321-.98.185-.53.402-1.1.216-.57.441-1.067l1.14-2.521h3.34v8.237H43v-2.489q0-.433.04-.995t.097-1.108q.056-.546.12-1.012.064-.465.112-.722l-.224-.032q-.065.24-.201.698-.137.458-.321.996-.185.537-.402 1.1-.216.561-.425 1.043l-1.14 2.521zm10.55 0h-2.634v-6.15H46.58v-2.087h6.615v2.087h-1.99v6.15zm6.149-1.493q.353 0 .602-.16.249-.161.41-.426.16-.265.224-.61.064-.346.064-.715v-.594q-.722.032-1.196.144-.473.113-.754.297-.281.185-.402.434-.12.249-.12.538 0 .482.329.787.329.305.843.305zm-1.156 1.718q-.594 0-1.044-.2-.45-.202-.763-.523-.313-.32-.473-.738-.16-.418-.16-.835 0-1.028.465-1.63.465-.602 1.188-.923.723-.321 1.59-.434.867-.112 1.653-.144v-.578q0-.546-.289-.843-.289-.297-.899-.297-.369 0-.618.112t-.385.297q-.137.185-.169.425-.032.241.016.498h-2.184q-.08-.562.065-1.084.144-.521.562-.923.417-.401 1.148-.642.73-.241 1.822-.241 1.076 0 1.774.209.699.208 1.092.594.394.385.546.915.153.53.153 1.172v5.588h-2.553v-.096q0-.225.08-.522.08-.297.177-.602l-.21-.113q-.16.321-.376.602-.217.281-.53.49-.313.209-.723.337-.41.129-.955.129zm16.972-2.312h.867v4.078h-2.425V31.27h-4.207v1.991h-2.424v-4.078h.128q.498 0 .795-.394.297-.393.45-.987.152-.594.192-1.3.04-.707.04-1.35v-2.12h6.584v6.15zm-5.492 0h2.858V25.12h-1.573q0 .915-.04 1.566-.04.65-.177 1.108-.136.457-.393.746-.257.29-.675.482v.16zm6.76.048q.466.08.755-.008.289-.089.442-.522.152-.434.208-1.293.056-.859.056-2.352v-2.023h6.584v8.237H79.85v-6.39h-1.429v.593q0 1.911-.128 3.116-.129 1.204-.546 1.854-.417.65-1.204.819-.787.169-2.104-.008V29.23zm12.171-3.533q0 .418.321.675.322.257.723.257h1.044v-1.943h-1.124q-.386 0-.675.24-.289.241-.289.771zm-.273 5.572h-2.81q.113-.112.241-.345.129-.233.257-.522.129-.29.241-.602l.209-.586q.225-.675.698-1.084.474-.41 1.293-.474v-.209q-.675-.032-1.156-.224-.482-.193-.779-.482-.297-.289-.434-.642-.136-.354-.136-.723 0-.594.249-1.036.249-.441.666-.73.418-.29.956-.434.537-.144 1.116-.144h4.383v8.237h-2.633v-2.922h-.707q-.433 0-.65.216-.217.217-.33.795-.08.466-.264.932-.185.465-.41.979zm11.16-5.267h.225q.096-.546.313-.98.217-.433.562-.738.345-.305.835-.473.49-.169 1.164-.169.722 0 1.292.281.57.281.956.77.385.49.594 1.173.209.682.209 1.485 0 .851-.257 1.606-.257.754-.755 1.316t-1.236.892q-.739.329-1.702.329-1.108 0-1.895-.37-.787-.369-1.277-1.051-.49-.683-.714-1.67-.225-.988-.225-2.224 0-1.076.16-2.023.161-.948.595-1.694.433-.747 1.18-1.277.747-.53 1.919-.786.642-.145 1.084-.241.441-.097.794-.193.354-.096.65-.209.298-.112.635-.257l.144 2.441q-.385.145-.762.24-.378.097-.755.17l-.763.144q-.385.072-.819.185-.642.16-1.06.425-.417.265-.658.65-.24.386-.337.892-.096.505-.096 1.148v.208zm2.103 3.388q.626 0 .948-.433.32-.434.32-1.397 0-.947-.312-1.365-.313-.417-.956-.417-.61 0-.931.45-.321.449-.321 1.412 0 .948.305 1.349t.947.401zm8.687 1.879h-3.356v-8.237h2.537v2.457q0 .45-.04 1.011-.04.562-.088 1.116-.049.554-.113 1.02-.064.465-.112.722l.209.032q.064-.24.2-.69.137-.45.321-.98.185-.53.402-1.1.217-.57.441-1.067l1.14-2.521h3.34v8.237h-2.537v-2.489q0-.433.04-.995t.097-1.108q.056-.546.12-1.012.064-.465.113-.722l-.225-.032q-.064.24-.2.698-.137.458-.322.996-.185.537-.401 1.1-.217.561-.426 1.043l-1.14 2.521zm13.134-2.216q0 .61-.273 1.068-.272.458-.77.763t-1.196.457q-.699.153-1.566.153-.803 0-1.47-.185-.666-.185-1.131-.546-.466-.361-.675-.907-.208-.546-.064-1.285h2.055q-.096.595.298.892.393.297 1.003.297.514 0 .875-.233t.361-.715q0-.497-.353-.642-.353-.144-.835-.144h-.963V26.34h.947q.466 0 .787-.201.321-.2.321-.667 0-.465-.33-.682-.328-.217-.794-.217-.257 0-.506.057-.249.056-.425.184-.177.129-.273.33-.096.2-.048.505h-1.991q-.145-.722.048-1.26.192-.538.65-.891.458-.354 1.148-.53.69-.177 1.542-.177.706 0 1.34.128.635.129 1.116.41.482.28.771.706.29.426.29 1.004 0 .417-.137.739-.137.32-.37.562-.233.24-.53.393-.297.152-.634.217v.208q.82.145 1.3.643.482.497.482 1.252zm3.758 2.216h-2.634v-8.237h2.634V26.1h2.36v-3.067h2.633v8.237h-2.633v-3.083h-2.36v3.083zm11.818-2.746h2.28q.08.707-.145 1.253-.225.546-.706.931-.482.385-1.213.586-.73.2-1.646.2-1.075 0-1.854-.312-.779-.313-1.277-.875-.497-.562-.738-1.333-.241-.77-.241-1.702 0-.915.233-1.726.233-.811.738-1.43.506-.617 1.293-.97.787-.354 1.895-.354 1.06 0 1.782.297.723.297 1.164.803.442.506.626 1.164.185.658.185 1.38 0 .226-.016.611t-.064.658h-5.106q0 .45.08.843.08.394.257.69.176.298.457.474.281.177.699.177.642 0 1.011-.305.37-.305.306-1.06zm-1.317-4.174q-.739 0-1.108.513-.37.514-.385 1.397h2.761v-.08q0-.915-.273-1.373-.273-.457-.995-.457zm12.476 3.677q.08.738-.072 1.372-.153.635-.578 1.1-.426.466-1.124.73-.699.266-1.694.266-.98 0-1.775-.257-.794-.257-1.348-.795t-.851-1.357q-.297-.819-.297-1.943 0-1.108.297-1.926.297-.82.85-1.357.555-.538 1.35-.803.794-.265 1.774-.265 1.846 0 2.737.907.892.907.699 2.513h-2.216q.096-.514.016-.843-.08-.329-.257-.522-.176-.192-.433-.265-.257-.072-.546-.072-.386 0-.675.12-.289.12-.465.426-.177.305-.265.81-.089.507-.089 1.277 0 .803.097 1.317.096.514.28.81.185.298.474.41.29.113.675.113.24 0 .49-.064.248-.065.441-.25.193-.184.281-.53.088-.344.008-.922h2.216zm4.512 1.75q.353 0 .602-.16.249-.161.41-.426.16-.265.224-.61.065-.346.065-.715v-.594q-.723.032-1.197.144-.473.113-.754.297-.281.185-.402.434-.12.249-.12.538 0 .482.329.787.33.305.843.305zm-1.156 1.718q-.594 0-1.044-.2-.45-.202-.763-.523-.313-.32-.473-.738-.16-.418-.16-.835 0-1.028.465-1.63.466-.602 1.188-.923.723-.321 1.59-.434.867-.112 1.654-.144v-.578q0-.546-.29-.843-.288-.297-.899-.297-.369 0-.618.112t-.385.297q-.137.185-.169.425-.032.241.016.498h-2.183q-.08-.562.064-1.084.144-.521.562-.923.417-.401 1.148-.642.73-.241 1.822-.241 1.076 0 1.775.209.698.208 1.091.594.394.385.546.915.153.53.153 1.172v5.588h-2.553v-.096q0-.225.08-.522.08-.297.177-.602l-.209-.113q-.16.321-.377.602-.217.281-.53.49-.313.209-.723.337-.41.129-.955.129z" fill="#333"/></svg>