<svg width="100%" height="100%" viewBox="0 0 21 20" fill="none" xmlns="http://www.w3.org/2000/svg" preserveAspectRatio="none"><rect width="20.532" height="19.532" rx="3" fill="#ffffff" data-color-group="0"/><path d="M7.36638 12.426C8.69638 12.426 10.0464 11.596 10.0464 8.98599C10.0464 6.46599 8.64638 5.63599 7.37638 5.63599C6.04638 5.63599 4.66638 6.46599 4.66638 9.06599C4.66638 11.596 6.07638 12.426 7.36638 12.426ZM7.34638 11.016C6.80638 11.016 6.47638 10.286 6.47638 9.02599C6.47638 7.78599 6.80638 7.04599 7.34638 7.04599C7.90638 7.04599 8.22638 7.79599 8.22638 9.06599C8.22638 10.306 7.88638 11.016 7.34638 11.016ZM13.8353 7.15599H12.5653V9.06599H10.7453V10.216H12.5653V12.126H13.8353V10.216H15.6653V9.06599H13.8353V7.15599Z" fill="black" data-color-group="1"/></svg>