<svg width="100%" height="100%" viewBox="0 0 152 44" fill="none" xmlns="http://www.w3.org/2000/svg" preserveAspectRatio="none"><rect x="0.574219" width="150.789" height="43.7287" rx="6.37952" fill="white" data-color-group="0"/><path d="M45.5593 17.4111H44.341L43.0261 20.1856C42.5797 21.1265 42.1334 22.0795 41.6991 23.0325H41.675C41.2407 22.0795 40.7944 21.1265 40.3481 20.1735L39.0573 17.4111H37.839L41.0839 23.9975C40.71 24.8178 40.2636 25.1073 39.5881 25.1073C39.3468 25.1073 39.1538 25.0832 38.997 25.035V26C39.2021 26.0603 39.4795 26.0965 39.7811 26.0965C40.7582 26.0965 41.4941 25.6502 42.1334 24.3594L45.5593 17.4111ZM47.5196 19.7031C46.0358 19.7031 45.0949 20.451 45.0949 21.7176H46.1806C46.1806 20.9576 46.651 20.5716 47.4834 20.5716C48.2313 20.5716 48.7018 20.8973 48.7018 21.5125C48.7018 22.1036 48.1348 22.4896 47.2904 22.4896H46.6752V23.322H47.2904C48.2916 23.322 48.8465 23.6718 48.8465 24.3594C48.8465 24.9264 48.3399 25.3003 47.4955 25.3003C46.5666 25.3003 46.072 24.9264 46.072 24.1182H44.9743C44.9743 25.433 45.8911 26.1689 47.4955 26.1689C48.9913 26.1689 49.9322 25.4934 49.9322 24.3835C49.9322 23.5512 49.4617 23.1049 48.7018 22.8636V22.8395C49.4014 22.5741 49.7754 22.1639 49.7754 21.4281C49.7754 20.3665 48.9068 19.7031 47.5196 19.7031ZM56.6421 26V19.872H55.5805V22.5017H52.4803V19.872H51.4188V26H52.4803V23.3461H55.5805V26H56.6421ZM60.7058 19.7031C59.1496 19.7031 58.3052 20.5837 58.2449 21.7417H59.3064C59.3426 21.0179 59.8131 20.5234 60.7058 20.5234C61.526 20.5234 62.093 20.9456 62.093 21.9589V22.2001C61.6105 22.2363 60.8626 22.3208 60.3197 22.4052C58.5585 22.6827 57.9916 23.322 57.9916 24.3353C57.9916 25.3727 58.7877 26.1327 60.0664 26.1327C61.0556 26.1327 61.7673 25.7587 62.1895 25.1073H62.2136C62.2136 25.3848 62.2378 25.7225 62.2981 26H63.2631C63.1787 25.626 63.1184 25.1073 63.1184 24.4318V22.0795C63.1184 20.463 62.2016 19.7031 60.7058 19.7031ZM62.093 23.3823C62.093 24.1061 61.9724 24.4439 61.5984 24.8299C61.2968 25.1435 60.8264 25.3124 60.3318 25.3124C59.5356 25.3124 59.0772 24.8902 59.0772 24.2629C59.0772 23.6598 59.4391 23.3582 60.4886 23.2014C60.9591 23.1169 61.6225 23.0445 62.093 23.0084V23.3823ZM69.1103 20.7164V19.884L63.8388 19.872V20.7164H65.9377V26H67.0234V20.7164H69.1103ZM71.0462 22.1398V19.872H69.9846V26H72.542C74.0619 26 74.8943 25.2883 74.8943 24.0699C74.8943 22.8636 74.0619 22.1398 72.542 22.1398H71.0462ZM71.0462 22.9601H72.4817C73.3743 22.9601 73.8207 23.322 73.8207 24.0699C73.8207 24.8178 73.3743 25.1797 72.4817 25.1797H71.0462V22.9601ZM81.4687 19.7031C79.6954 19.7031 78.5856 20.9456 78.5856 22.936C78.5856 24.9264 79.6954 26.1689 81.4687 26.1689C82.9645 26.1689 83.9657 25.1435 84.0864 23.7442H82.9766C82.9042 24.6248 82.301 25.3003 81.4566 25.3003C80.3709 25.3003 79.7075 24.4077 79.7075 22.936C79.7075 21.4763 80.3709 20.5716 81.4566 20.5716C82.301 20.5716 82.9042 21.1748 82.9766 22.0433H84.0864C83.9657 20.6681 82.9404 19.7031 81.4687 19.7031ZM90.2421 19.872H89.1203L87.3349 24.7454H87.3108L85.5496 19.872H84.4036L86.7318 26.0241C86.3337 27.1098 86.02 27.3993 85.2118 27.3993C85.0188 27.3993 84.8499 27.3752 84.7052 27.3269V28.2196C84.862 28.2679 85.055 28.2799 85.2601 28.2799C86.5749 28.2799 87.1781 27.8457 87.7813 26.2775L90.2421 19.872ZM98.4894 26V19.872H96.7764L95.6666 22.6947C95.3651 23.4547 95.0756 24.275 94.8102 25.047H94.786C94.5207 24.275 94.2191 23.4547 93.9175 22.6947L92.8198 19.872H91.1068V26H92.1201V23.0204C92.1201 22.2604 92.108 21.5005 92.096 20.7405H92.1201C92.3975 21.5005 92.6871 22.2484 92.9886 23.0325L94.1588 26H95.4374L96.5955 23.0325C96.9091 22.2484 97.1866 21.5005 97.4761 20.7405H97.4882C97.4761 21.5005 97.464 22.2604 97.464 23.0204V26H98.4894ZM107.749 26V19.872H106.036L104.926 22.6947C104.624 23.4547 104.335 24.275 104.07 25.047H104.045C103.78 24.275 103.478 23.4547 103.177 22.6947L102.079 19.872H100.366V26H101.379V23.0204C101.379 22.2604 101.367 21.5005 101.355 20.7405H101.379C101.657 21.5005 101.946 22.2484 102.248 23.0325L103.418 26H104.697L105.855 23.0325C106.168 22.2484 106.446 21.5005 106.735 20.7405H106.748C106.735 21.5005 106.723 22.2604 106.723 23.0204V26H107.749ZM114.298 19.872H113.176L111.39 24.7454H111.366L109.605 19.872H108.459L110.787 26.0241C110.389 27.1098 110.076 27.3993 109.267 27.3993C109.074 27.3993 108.905 27.3752 108.761 27.3269V28.2196C108.917 28.2679 109.11 28.2799 109.316 28.2799C110.63 28.2799 111.234 27.8457 111.837 26.2775L114.298 19.872Z" fill="black" data-color-group="1"/></svg>