<svg width="677.147" height="79" viewBox="0 0 677.147 79" xmlns="http://www.w3.org/2000/svg"><path d="M12.425 20.126H33.37v-5.964H6.177V60.17h11.502c.9 0 2.07-.035 3.515-.107 1.443-.07 2.958-.307 4.544-.71a18.232 18.232 0 004.65-1.916c1.515-.876 2.816-2.119 3.905-3.728a15.195 15.195 0 001.882-3.834c.45-1.373.674-2.958.674-4.757 0-2.32-.32-4.284-.958-5.893-.64-1.61-1.444-2.935-2.414-3.976-.97-1.041-2.048-1.858-3.231-2.45-1.183-.591-2.32-1.029-3.408-1.313-1.515-.379-2.887-.592-4.118-.639a83.374 83.374 0 00-3.124-.071h-7.171zm0 16.046h6.958c1.136 0 2.095.036 2.876.107.78.07 1.62.272 2.52.603 1.657.568 2.947 1.562 3.87 2.982.922 1.42 1.384 3.195 1.384 5.325 0 2.13-.462 3.905-1.385 5.325-.922 1.42-2.189 2.461-3.798 3.124-.805.379-1.716.627-2.734.745-1.017.119-2.07.178-3.159.178h-6.532zm58.362 12.212l-5.893-.071c0 2.84-.746 4.828-2.237 5.964-1.49 1.136-3.159 1.704-5.005 1.704-2.509 0-4.615-1.03-6.319-3.089-1.704-2.059-2.58-5.431-2.627-10.117h21.655a28.91 28.91 0 00.213-1.953 25.47 25.47 0 00.071-1.881c0-2.035-.26-3.964-.781-5.787-.52-1.822-1.325-3.408-2.414-4.757-1.089-1.348-2.461-2.425-4.118-3.23-1.657-.805-3.621-1.207-5.893-1.207-2.509 0-4.698.485-6.568 1.456-1.87.97-3.42 2.295-4.65 3.976-1.23 1.68-2.154 3.656-2.769 5.928-.615 2.272-.923 4.733-.923 7.384 0 2.509.284 4.875.852 7.1.568 2.225 1.456 4.154 2.663 5.786 1.207 1.633 2.745 2.923 4.614 3.87 1.87.947 4.083 1.42 6.639 1.42 4.165 0 7.431-1.089 9.798-3.266s3.597-5.254 3.692-9.23zM57.155 28.788c2.414 0 4.272.793 5.573 2.378 1.302 1.586 1.953 3.965 1.953 7.136v.639H48.777c.19-3.03.994-5.479 2.414-7.349 1.42-1.87 3.408-2.804 5.964-2.804zm24.992 21.3h-5.538c-.379 3.74.52 6.473 2.698 8.2 2.177 1.728 5.585 2.568 10.224 2.521 1.94 0 3.751-.19 5.431-.568 1.68-.379 3.148-.994 4.403-1.846a9.078 9.078 0 002.946-3.266c.71-1.325 1.065-2.958 1.065-4.899a8.04 8.04 0 00-.532-2.84 7.913 7.913 0 00-1.563-2.556c-.686-.757-1.526-1.385-2.52-1.882-.994-.496-2.13-.745-3.408-.745v-.994c2.083-.237 3.704-1.077 4.864-2.52 1.16-1.444 1.739-3.16 1.739-5.148 0-1.704-.331-3.16-.994-4.367a8.584 8.584 0 00-2.698-2.982c-1.136-.78-2.485-1.349-4.047-1.704a22.377 22.377 0 00-4.97-.532c-1.799 0-3.49.213-5.076.639-1.586.426-2.947 1.089-4.083 1.988-1.136.9-2 2.083-2.591 3.55-.592 1.467-.817 3.266-.675 5.396h5.538c-.142-1.467-.071-2.674.213-3.621.284-.947.734-1.68 1.349-2.201.615-.52 1.373-.887 2.272-1.1.9-.213 1.893-.32 2.982-.32 2.414 0 4.189.462 5.325 1.384 1.136.924 1.704 2.379 1.704 4.367 0 1.799-.532 3.171-1.597 4.118-1.066.947-2.521 1.42-4.367 1.42h-5.822v5.041h6.319c2.083 0 3.692.485 4.828 1.456 1.136.97 1.704 2.473 1.704 4.508 0 1.893-.639 3.325-1.917 4.295-1.278.97-3.077 1.48-5.396 1.527a16.67 16.67 0 01-3.124-.284c-.994-.19-1.858-.532-2.591-1.03a5.038 5.038 0 01-1.705-1.952c-.402-.805-.532-1.822-.39-3.053zm54.741 10.792c4.733 0 8.425-1.586 11.076-4.757 2.65-3.171 3.976-7.739 3.976-13.703 0-5.964-1.325-10.532-3.976-13.703-2.65-3.171-6.343-4.757-11.076-4.757-4.733 0-8.425 1.586-11.076 4.757-2.65 3.171-3.976 7.739-3.976 13.703 0 5.964 1.325 10.532 3.976 13.703 2.65 3.171 6.343 4.757 11.076 4.757zm0-4.899c-2.461 0-4.497-1.112-6.106-3.337-1.61-2.225-2.414-5.633-2.414-10.224s.805-8.011 2.414-10.26c1.61-2.248 3.645-3.372 6.106-3.372 2.414 0 4.438 1.124 6.07 3.372 1.633 2.249 2.45 5.669 2.45 10.26s-.816 8-2.45 10.224c-1.632 2.225-3.656 3.337-6.07 3.337zm29.181 4.189h6.106V30.066h11.36V24.67h-28.826v5.396h11.36zm23.004 0h6.035V44.479h3.266c1.799 0 3.1.45 3.905 1.349.805.9 1.467 2.154 1.988 3.763.331 1.041.65 2.083.959 3.124.307 1.041.615 2.035.923 2.982.307.947.627 1.81.958 2.591.331.782.686 1.409 1.065 1.882h7.1a12.001 12.001 0 01-1.917-2.84 83.31 83.31 0 01-1.491-3.337 64.985 64.985 0 01-1.314-3.586 148.76 148.76 0 00-.958-2.804c-.615-1.61-1.385-2.793-2.308-3.55-.922-.757-2.283-1.302-4.082-1.633v-.639c1.515-.331 2.757-.84 3.727-1.526.97-.687 1.811-1.74 2.521-3.16.426-.852.817-1.787 1.172-2.804.354-1.018.792-2.26 1.313-3.728.331-.947.745-1.988 1.243-3.124.496-1.136 1.1-2.059 1.81-2.769h-6.816c-.426.568-.816 1.29-1.172 2.165a43.03 43.03 0 00-1.029 2.84c-.331 1.018-.663 2.071-.994 3.16a54.918 54.918 0 01-.994 2.982c-.568 1.515-1.266 2.603-2.095 3.266-.828.663-2 .994-3.514.994h-3.266V24.67h-6.035zm37.772-35.5h-6.106v48.138h6.106V59.957c0-.9-.118-2.07-.355-3.514a201.47 201.47 0 00-.71-4.083l.639-.071c.805 2.793 2 4.923 3.585 6.39 1.586 1.467 3.917 2.201 6.994 2.201 2.414 0 4.461-.58 6.142-1.74a14.089 14.089 0 004.118-4.401c1.064-1.775 1.845-3.764 2.343-5.964.496-2.201.745-4.32.745-6.355 0-2.083-.225-4.2-.674-6.355-.45-2.153-1.208-4.094-2.273-5.821a13.612 13.612 0 00-4.118-4.26c-1.68-1.113-3.774-1.669-6.283-1.669-3.077 0-5.408.734-6.993 2.201-1.586 1.467-2.781 3.597-3.586 6.39l-.639-.071c.237-1.278.473-2.639.71-4.082.237-1.444.355-2.616.355-3.515zm8.662 31.169c-2.556 0-4.591-1.16-6.106-3.479-1.515-2.32-2.272-5.633-2.272-9.94 0-4.165.757-7.443 2.272-9.834 1.515-2.39 3.55-3.585 6.106-3.585 2.509 0 4.603 1.195 6.284 3.585 1.68 2.39 2.52 5.669 2.52 9.834 0 4.307-.828 7.62-2.485 9.94-1.657 2.32-3.763 3.479-6.319 3.479zm27.406-18.034V24.67h-5.822v35.5h12.07c2.745 0 4.982-.402 6.71-1.207 1.727-.805 3.088-1.787 4.082-2.947.994-1.16 1.68-2.402 2.059-3.727.379-1.325.568-2.485.568-3.479 0-2.556-.58-4.698-1.74-6.425-1.16-1.728-2.662-2.923-4.508-3.586a14.052 14.052 0 00-1.846-.532 18.995 18.995 0 00-1.846-.285 29.406 29.406 0 00-2.308-.142c-.875-.023-1.905-.035-3.088-.035zm24.566 22.365h6.035v-35.5h-6.035zm-11.076-11.36c0 2.225-.745 3.834-2.237 4.828-1.49.994-3.325 1.491-5.502 1.491h-5.751V42.491h6.106c2.367 0 4.189.532 5.467 1.598 1.278 1.065 1.917 2.638 1.917 4.721zm34.009 11.36h6.106V30.066h11.36V24.67h-28.826v5.396h11.36zm28.897-35.5h-5.893v35.5h6.106l8.52-14.981a111.064 111.064 0 002.663-4.864 91.882 91.882 0 001.739-3.585 58.952 58.952 0 001.171-2.733c.308-.782.628-1.55.959-2.308l.568.142c-.379 1.799-.663 3.87-.852 6.212-.19 2.344-.308 4.793-.355 7.349l-.071 14.768h5.893v-35.5h-5.893l-8.946 15.762c-.994 1.751-1.81 3.29-2.45 4.615a118.461 118.461 0 00-1.632 3.515 50.02 50.02 0 00-1.137 2.769 45.201 45.201 0 01-.958 2.378l-.639-.284c.237-.805.426-1.81.568-3.017.142-1.208.26-2.497.355-3.87.095-1.373.166-2.769.213-4.189.047-1.42.071-2.769.071-4.047zm33.867 10.792c0-2.225.71-3.799 2.13-4.722 1.42-.922 3.313-1.384 5.68-1.384h6.106v12.496h-5.325c-2.556 0-4.627-.532-6.212-1.597-1.586-1.066-2.379-2.663-2.379-4.793zm-7.384 24.708h7.171c.52-1.467.97-3.041 1.349-4.721.379-1.68.757-3.16 1.136-4.438.284-.947.592-1.692.923-2.236.331-.545.734-.959 1.207-1.243.473-.284 1.041-.461 1.704-.532a22.342 22.342 0 012.343-.107h5.467V60.17h5.822v-35.5h-10.366c-1.23 0-2.284.012-3.16.035-.875.024-1.656.072-2.342.143a14.71 14.71 0 00-1.918.319c-.591.142-1.195.331-1.81.568a9.688 9.688 0 00-4.402 3.444c-1.136 1.585-1.704 3.585-1.704 5.999 0 1.041.154 2.083.462 3.124a6.804 6.804 0 001.597 2.769c.757.805 1.751 1.456 2.982 1.953 1.23.496 2.769.745 4.615.745v.994c-1.988.095-3.55.604-4.686 1.526-1.136.923-2.035 2.26-2.698 4.012-.284.805-.58 1.704-.887 2.698a449.2 449.2 0 01-.923 2.947c-.308.97-.616 1.834-.923 2.591-.308.757-.628 1.302-.959 1.633zm75.97-13.632l-5.893-.071c.095 1.893-.06 3.455-.462 4.686-.402 1.23-.934 2.213-1.597 2.947-.663.733-1.42 1.254-2.272 1.561a7.482 7.482 0 01-2.556.462c-2.698 0-4.816-1.136-6.355-3.408-1.538-2.272-2.307-5.704-2.307-10.295 0-4.307.734-7.644 2.201-10.011 1.467-2.367 3.574-3.55 6.319-3.55 2.13 0 3.822.745 5.077 2.236 1.254 1.492 1.857 3.752 1.81 6.781l5.964.071c.19-4.45-.9-7.893-3.266-10.33-2.367-2.438-5.562-3.657-9.585-3.657-2.65 0-4.923.509-6.816 1.526a13.222 13.222 0 00-4.65 4.119c-1.208 1.727-2.095 3.715-2.663 5.963-.568 2.249-.852 4.627-.852 7.136 0 2.65.284 5.088.852 7.313.568 2.225 1.455 4.142 2.662 5.751 1.207 1.61 2.758 2.864 4.651 3.763 1.893.9 4.165 1.349 6.816 1.349 4.26 0 7.502-1.325 9.727-3.976 2.225-2.65 3.29-6.106 3.195-10.366zm30.317-21.868h-6.035v16.898c-.947.379-2 .663-3.16.852-1.16.19-2.33.284-3.514.284-.9 0-1.751-.095-2.556-.284a5.828 5.828 0 01-2.13-.959c-.615-.45-1.112-1.053-1.491-1.81-.379-.757-.568-1.704-.568-2.84V24.67h-6.035v13.135c0 2.035.296 3.668.888 4.899.591 1.23 1.384 2.19 2.378 2.876.994.686 2.13 1.136 3.408 1.349 1.278.212 2.603.319 3.976.319 1.23 0 2.698-.142 4.402-.426 1.704-.284 3.171-.734 4.402-1.349V60.17h6.035zm35.713 23.714l-5.893-.071c0 2.84-.745 4.828-2.236 5.964-1.492 1.136-3.16 1.704-5.006 1.704-2.509 0-4.615-1.03-6.319-3.089-1.704-2.059-2.58-5.431-2.627-10.117h21.655a28.91 28.91 0 00.213-1.953 25.47 25.47 0 00.071-1.881c0-2.035-.26-3.964-.781-5.787-.52-1.822-1.325-3.408-2.414-4.757-1.089-1.348-2.461-2.425-4.118-3.23-1.657-.805-3.621-1.207-5.893-1.207-2.509 0-4.698.485-6.567 1.456-1.87.97-3.42 2.295-4.651 3.976-1.23 1.68-2.154 3.656-2.769 5.928-.615 2.272-.923 4.733-.923 7.384 0 2.509.284 4.875.852 7.1.568 2.225 1.455 4.154 2.662 5.786 1.207 1.633 2.746 2.923 4.615 3.87 1.87.947 4.083 1.42 6.639 1.42 4.165 0 7.431-1.089 9.798-3.266s3.597-5.254 3.692-9.23zM494.16 28.788c2.414 0 4.272.793 5.573 2.378 1.302 1.586 1.953 3.965 1.953 7.136v.639h-15.904c.19-3.03.994-5.479 2.414-7.349 1.42-1.87 3.408-2.804 5.964-2.804zm28.258 31.382h6.106V30.066h11.36V24.67h-28.826v5.396h11.36zm22.081-24.992h5.751c-.379-1.988-.012-3.574 1.1-4.757 1.113-1.183 2.829-1.775 5.148-1.775 4.402 0 6.603 2.556 6.603 7.668v1.349c-2.177.19-4.461.438-6.851.745-2.39.308-4.592.888-6.604 1.74-2.011.852-3.668 2.106-4.97 3.763-1.301 1.657-1.952 3.952-1.952 6.887 0 1.278.201 2.52.603 3.727a9.064 9.064 0 001.882 3.231c.852.947 1.929 1.704 3.23 2.272 1.302.568 2.876.852 4.722.852 3.077 0 5.384-.745 6.923-2.236 1.538-1.491 2.686-3.326 3.443-5.503h.639c-.237 1.23-.485 2.497-.746 3.799-.26 1.301-.39 2.189-.39 2.662v.568h6.035V36.74c0-4.023-.876-7.16-2.627-9.408-1.751-2.248-4.852-3.372-9.301-3.372-4.26 0-7.49 1.041-9.691 3.124-2.202 2.083-3.184 4.78-2.947 8.094zm10.863 21.158c-1.988 0-3.621-.58-4.899-1.74-1.278-1.16-1.917-2.733-1.917-4.721 0-1.183.201-2.26.603-3.23.403-.97 1.148-1.835 2.237-2.592 1.089-.757 2.568-1.384 4.438-1.881 1.87-.497 4.295-.864 7.277-1.101a49.048 49.048 0 010 6.461c-.19 2.556-.958 4.662-2.308 6.319-1.349 1.657-3.159 2.485-5.431 2.485z" fill="#333"/></svg>