<svg width="284.314" height="79" viewBox="0 0 284.314 79" xmlns="http://www.w3.org/2000/svg"><path d="M98.82 5.434h4.117q.589 0 1.177.043.588.044 1.154.196.501.131 1.024.425t.948.817q.425.523.708 1.318t.283 1.95q0 .915-.207 1.58-.207.664-.577 1.252-.414.675-.991 1.1-.578.425-1.242.653-.665.23-1.394.305-.73.077-1.47.077h-1.613v4.4H98.82V5.434zm1.917 7.93h2.004q.501 0 .97-.066.468-.065.838-.24.741-.37 1.166-1.089.425-.719.425-1.786 0-1.068-.436-1.787-.436-.718-1.198-1.023-.392-.175-.784-.207-.393-.033-1.068-.033h-1.917v6.23zm15.576 2.548l1.808.022q-.043 1.83-1.133 2.832-1.089 1.002-3.006 1.002-1.176 0-2.037-.436-.86-.436-1.416-1.187-.555-.752-.817-1.776-.261-1.023-.261-2.178 0-1.22.283-2.266.283-1.045.85-1.819.566-.773 1.427-1.22.86-.446 2.015-.446 1.045 0 1.808.37.762.37 1.263.991.501.621.74 1.46.24.839.24 1.775 0 .284-.021.578-.022.294-.066.599h-6.644q.022 2.156.806 3.104t1.939.948q.85 0 1.536-.523t.686-1.83zm-2.375-5.99q-1.176 0-1.83.86-.653.86-.74 2.254h4.88v-.196q0-1.46-.6-2.189-.599-.73-1.71-.73zm8.257 9.628h-1.852V8.658h1.852v4.727h1.002q.697 0 1.078-.305.381-.305.643-1.002.152-.414.305-.915.152-.501.305-.97.152-.468.316-.87.163-.404.36-.665h2.09q-.326.327-.555.85-.229.522-.381.958-.24.675-.403 1.144-.164.468-.36.86-.327.654-.773.97-.447.315-1.144.468v.196q.828.152 1.253.5.425.35.708 1.09.109.305.294.86.185.556.403 1.1.24.567.457 1.025.218.457.589.871h-2.179q-.174-.218-.327-.577-.152-.36-.294-.795-.141-.436-.283-.915-.142-.48-.294-.959-.24-.74-.61-1.154-.37-.414-1.198-.414h-1.002v4.814zm6.666-1.503q.283 0 .588-.011.305-.01.555-.142.251-.13.425-.414.175-.283.24-.85.065-.653.12-1.578.054-.926.098-1.983.043-1.056.098-2.19.054-1.132.098-2.221h6.557V19.55h-1.808v-9.28h-3.137q-.066 1.024-.12 2.102-.054 1.078-.109 2.048-.054.97-.109 1.732-.054.762-.098 1.154-.065.567-.24 1.013-.174.447-.544.752-.37.305-.991.468-.621.163-1.601.163l-.022-1.655zm13.375-6.165h-1.764q-.11-1.525.904-2.484 1.013-.958 2.973-.958 2.048 0 2.854 1.035.806 1.034.806 2.886v7.189h-1.851v-.174q0-.218.12-.817.12-.6.228-1.166h-.196q-.348 1.002-1.056 1.689-.708.686-2.124.686-.85 0-1.45-.262-.598-.261-.99-.697-.392-.435-.578-.99-.185-.556-.185-1.145 0-1.35.6-2.113.598-.762 1.524-1.154.926-.392 2.026-.534 1.1-.142 2.102-.229v-.414q0-2.352-2.026-2.352-1.067 0-1.579.544-.512.545-.338 1.46zm1.569 6.492q1.046 0 1.666-.763.621-.762.708-1.939.066-.98 0-1.982-1.372.109-2.233.338-.86.228-1.361.577-.501.348-.686.795-.185.447-.185.991 0 .915.588 1.449t1.503.534zm18.342-9.716l.436 10.892h-1.852l-.24-6.492q-.021-.631 0-1.34.022-.707 0-1.514h-.217q-.065.393-.142.774-.076.381-.196.806-.12.425-.283.947-.163.523-.36 1.199l-1.699 5.533h-2.287l-1.83-6.274q-.13-.436-.24-.795-.108-.36-.206-.708-.098-.349-.175-.697-.076-.349-.163-.785h-.218q.044.872.055 1.493.01.62-.011 1.187l-.196 6.666h-1.678l.501-10.892h2.701l1.721 5.816q.175.61.469 1.612.294 1.002.512 2.07h.022q.174-.72.424-1.721.25-1.002.534-1.895l1.852-5.882h2.766zm4.75 3.224h-1.765q-.11-1.525.904-2.484 1.013-.958 2.973-.958 2.048 0 2.854 1.035.806 1.034.806 2.886v7.189h-1.851v-.174q0-.218.12-.817.12-.6.228-1.166h-.196q-.349 1.002-1.057 1.689-.708.686-2.124.686-.85 0-1.448-.262-.6-.261-.991-.697-.392-.435-.578-.99-.185-.556-.185-1.145 0-1.35.6-2.113.598-.762 1.524-1.154.926-.392 2.026-.534 1.1-.142 2.102-.229v-.414q0-2.352-2.026-2.352-1.067 0-1.579.544-.512.545-.338 1.46zm1.568 6.492q1.045 0 1.666-.763.621-.762.708-1.939.066-.98 0-1.982-1.372.109-2.233.338-.86.228-1.361.577-.501.348-.686.795-.186.447-.186.991 0 .915.589 1.449.588.534 1.503.534zm8.561 1.328q-.501 0-.882-.424-.381-.425-.381-1.188 0-.762.38-1.165.382-.403.883-.403t.871.403q.37.403.37 1.165 0 .763-.37 1.188-.37.424-.87.424zM195.87 5.434V19.55h-1.917V7.133h-6.1V19.55h-1.917V5.434h9.934zm7.123 14.334q-2.178 0-3.398-1.46-1.22-1.46-1.22-4.204 0-2.745 1.22-4.204 1.22-1.46 3.398-1.46t3.398 1.46q1.22 1.46 1.22 4.204 0 2.745-1.22 4.204-1.22 1.46-3.398 1.46zm0-1.503q1.111 0 1.863-1.024.751-1.024.751-3.137t-.751-3.148q-.752-1.035-1.863-1.035-1.133 0-1.873 1.035-.741 1.035-.741 3.148 0 2.113.74 3.137.741 1.024 1.874 1.024zm14.487-.175h1.503v4.38h-1.569v-2.92h-7.297v2.92h-1.569v-4.38h.196q.784 0 1.187-.675t.643-1.873q.065-.327.12-1.057.054-.73.087-1.666.033-.937.065-2.026.033-1.09.055-2.135h6.579v9.432zm-6.819 0h5.01v-7.733h-3.245q-.066 1.612-.142 2.92-.076 1.306-.142 1.85-.26 2.114-1.48 2.811v.152zm10.021-9.432h1.873v.174q0 .414-.108 1.078-.11.665-.218 1.253l.196.022q.37-1.285 1.1-1.96.73-.676 2.146-.676 1.154 0 1.928.512.773.512 1.263 1.307.49.795.697 1.786.207.991.207 1.95 0 .937-.229 1.95-.228 1.013-.719 1.83-.49.816-1.263 1.35-.773.534-1.884.534-1.416 0-2.146-.675-.73-.676-1.1-1.961l-.196.022q.109.588.218 1.252.108.665.108 1.079v3.943h-1.873V8.658zm4.531 9.563q1.176 0 1.939-1.067.762-1.068.762-3.05 0-1.917-.773-3.017-.773-1.1-1.928-1.1-1.176 0-1.873 1.1-.697 1.1-.697 3.017 0 1.982.697 3.05.697 1.067 1.873 1.067zm10.827 1.547q-2.178 0-3.398-1.46-1.22-1.46-1.22-4.204 0-2.745 1.22-4.204 1.22-1.46 3.398-1.46t3.398 1.46q1.22 1.46 1.22 4.204 0 2.745-1.22 4.204-1.22 1.46-3.398 1.46zm0-1.503q1.111 0 1.863-1.024.751-1.024.751-3.137t-.751-3.148q-.752-1.035-1.863-1.035-1.133 0-1.873 1.035-.741 1.035-.741 3.148 0 2.113.74 3.137.741 1.024 1.874 1.024zm15.423-6.645q.175.654.24 1.253.065.6.065 1.23 0 1.199-.305 2.245-.326 1.132-.99 1.906-.665.773-1.493 1.144-.458.217-.915.294-.458.076-.915.076t-1.013-.066q-.555-.065-1.122-.348-.74-.37-1.22-.948-.48-.577-.762-1.372-.283-.795-.392-1.83-.11-1.035-.11-2.32.044-.959.11-2.048.065-1.089.414-2.124.348-1.034 1.11-1.939.763-.904 2.2-1.47.698-.261 1.253-.447.556-.185 1.024-.348.469-.164.904-.349.436-.185.872-.468l.196 1.743q-.262.261-.578.435-.315.175-.708.316-.392.142-.893.283-.5.142-1.154.338-1.765.567-2.669 1.82-.904 1.252-.839 3.343h.327q.13-.871.469-1.492.337-.621.827-1.024.49-.403 1.068-.6.577-.195 1.209-.195 1.503 0 2.472.828.97.827 1.318 2.134zm-4.291 6.645q.544 0 1.013-.25.468-.251.817-.774.348-.523.555-1.307.207-.784.207-1.83 0-2.091-.751-3.137-.752-1.046-1.863-1.046-1.133 0-1.873 1.046-.741 1.046-.741 3.115 0 2.135.73 3.159t1.906 1.024zm8.517 1.285h-1.851V8.658h1.851v4.487h4.575V8.658h1.852V19.55h-1.852v-4.727h-4.575v4.727zm15.358-3.638l1.809.022q-.044 1.83-1.133 2.832-1.09 1.002-3.006 1.002-1.177 0-2.037-.436-.86-.436-1.416-1.187-.556-.752-.817-1.776-.262-1.023-.262-2.178 0-1.22.284-2.266.283-1.045.85-1.819.566-.773 1.426-1.22.86-.446 2.015-.446 1.046 0 1.808.37.763.37 1.264.991.5.621.74 1.46t.24 1.775q0 .284-.022.578t-.065.599h-6.644q.021 2.156.806 3.104.784.948 1.938.948.85 0 1.536-.523t.686-1.83zm-2.374-5.99q-1.176 0-1.83.86-.653.86-.74 2.254h4.88v-.196q0-1.46-.6-2.189-.599-.73-1.71-.73zm12.853 5.99l1.808.022q-.044 1.83-1.133 2.832-1.09 1.002-3.006 1.002-1.177 0-2.037-.436-.86-.436-1.416-1.187-.555-.752-.817-1.776-.261-1.023-.261-2.178 0-1.22.283-2.266.283-1.045.85-1.819.566-.773 1.426-1.22.86-.446 2.015-.446 1.046 0 1.809.37.762.37 1.263.991.501.621.74 1.46.24.839.24 1.775 0 .284-.021.578-.022.294-.066.599h-6.644q.022 2.156.806 3.104t1.939.948q.85 0 1.536-.523t.686-1.83zm-2.375-5.99q-1.176 0-1.83.86-.653.86-.74 2.254h4.88v-.196q0-1.46-.6-2.189-.599-.73-1.71-.73zM38.848 45.69h-1.852V34.798h1.852v4.487h4.574v-4.487h1.852V45.69h-1.852v-4.727h-4.574v4.727zm11.023-7.668h-1.765q-.109-1.525.904-2.484 1.013-.958 2.974-.958 2.047 0 2.853 1.035.806 1.034.806 2.886v7.189h-1.851v-.174q0-.218.12-.817.12-.6.228-1.166h-.196q-.348 1.002-1.056 1.689-.708.686-2.124.686-.85 0-1.449-.262-.599-.261-.991-.697-.392-.435-.577-.99-.186-.556-.186-1.145 0-1.35.6-2.113.599-.762 1.524-1.154.926-.392 2.026-.534 1.1-.142 2.103-.229v-.414q0-2.352-2.026-2.352-1.068 0-1.58.544-.512.545-.337 1.46zm1.568 6.492q1.046 0 1.667-.763.62-.762.708-1.939.065-.98 0-1.982-1.373.109-2.233.338-.86.228-1.362.577-.5.348-.686.795-.185.447-.185.991 0 .915.588 1.449t1.503.534zm10.282-9.738h1.264v-2.091q.5.109.915.109.435 0 .936-.11v2.092h1.94v1.394h-1.94v6.688q0 .654.099.959.098.305.664.305.37 0 .599-.033l.534-.076v1.677q-.567.065-.915.087-.349.022-.676.022-1.285 0-1.731-.545-.447-.544-.447-1.46V36.17h-1.242v-1.394zm7.21 10.914V34.798q.524.174.96.174.457 0 .936-.174V45.69h-1.895zm.96-11.676q-.545 0-.915-.295-.37-.294-.37-.73 0-.435.37-.73.37-.293.914-.293.545 0 .905.294.359.294.359.73 0 .435-.36.73-.359.294-.904.294zm5.794 11.676H73.79V34.798h1.743v.174q0 .414-.12 1.078-.12.665-.229 1.253l.196.022q.327-1.264 1.155-1.95.827-.686 2.156-.686.61 0 1.188.163.577.164 1.013.588.435.425.708 1.155.272.73.272 1.863v7.232h-1.895v-6.666q0-1.568-.469-2.233-.468-.664-1.448-.664t-1.678.915q-.697.915-.697 2.766v5.882zm8.953 0V30.659h1.852v6.492q0 .631-.033 1.132-.032.501-.098.926-.065.425-.13.806-.066.381-.131.795h.174q.044-.13.11-.25.065-.12.108-.229.174-.392.37-.708.197-.316.469-.675.272-.36.642-.817l.915-1.133 1.743-2.2h2.331l-3.921 4.51 3.965 6.382h-2.288l-3.006-5.163-1.22 1.329v3.834h-1.852zm13.703.218q-2.179 0-3.399-1.46-1.22-1.46-1.22-4.204 0-2.745 1.22-4.204 1.22-1.46 3.399-1.46 2.178 0 3.398 1.46 1.22 1.46 1.22 4.204 0 2.745-1.22 4.204-1.22 1.46-3.398 1.46zm0-1.503q1.11 0 1.862-1.024t.752-3.137q0-2.113-.752-3.148-.751-1.035-1.862-1.035-1.133 0-1.874 1.035-.74 1.035-.74 3.148 0 2.113.74 3.137.741 1.024 1.874 1.024zm9.89-12.287q-.588 0-.74.338-.153.338-.153.773v1.569h2.113l.022 1.394h-2.135v9.498h-1.852l-.022-9.498h-1.372v-1.394h1.372v-1.329q0-.48.055-1.002.054-.523.283-.948.229-.425.719-.697.49-.272 1.34-.272.435 0 .838.043.403.044.904.11l-.109 1.59q-.326-.066-.675-.12-.348-.055-.588-.055zm5.882 0q-.588 0-.74.338-.153.338-.153.773v1.569h2.113l.021 1.394h-2.134v9.498h-1.852l-.022-9.498h-1.372v-1.394h1.372v-1.329q0-.48.055-1.002.054-.523.283-.948.229-.425.719-.697.49-.272 1.34-.272.435 0 .838.043.403.044.904.11l-.109 1.59q-.327-.066-.675-.12-.349-.055-.588-.055zm3.463 13.724q-.5 0-.882-.424-.381-.425-.381-1.188 0-.762.381-1.165t.882-.403q.502 0 .872.403t.37 1.165q0 .763-.37 1.188-.37.424-.872.424zm9.695-8.866h-.284q-.24-.043-.479-.098-.24-.054-.545-.054-.413 0-.795.163-.38.164-.675.6-.294.435-.468 1.176-.175.74-.196 1.917v5.01h-1.917V34.798h1.873v.174q0 .458-.033.806-.032.349-.087.654l-.109.62q-.054.316-.098.687l.196.021q.327-1.437 1.079-2.254.751-.817 2.058-.817h.24q.13 0 .24.022v2.265zm1.677 5.054v-7.232h1.895v6.666q0 1.568.469 2.233.468.664 1.448.664t1.678-.915q.697-.915.697-2.766v-5.882h1.895V45.69h-1.743v-.174q0-.414.12-1.079.12-.664.229-1.252l-.196-.022q-.327 1.264-1.155 1.95-.828.686-2.157.686-.61 0-1.187-.163-.577-.164-1.013-.589-.435-.424-.708-1.154-.272-.73-.272-1.863zm12.439 3.812q-.501 0-.882-.424-.382-.425-.382-1.188 0-.762.382-1.165.38-.403.882-.403.5 0 .871.403.37.403.37 1.165 0 .763-.37 1.188-.37.424-.871.424zm7.406-.152l4.27-14.116h2.484l4.226 14.116h-2.048l-.937-3.246h-5.119l-.937 3.246h-1.939zm4.532-8.932l-1.155 3.943h4.117l-1.22-4.291q-.196-.654-.305-1.122-.109-.468-.174-.828-.065-.36-.109-.642-.043-.284-.109-.567h-.218q-.108.632-.315 1.58-.207.947-.512 1.927zm13.746 9.172q-1.569 0-2.68-.632-1.11-.632-1.819-1.656-.708-1.024-1.035-2.33-.326-1.308-.326-2.658 0-1.395.348-2.713.349-1.317 1.078-2.33.73-1.013 1.841-1.623 1.111-.61 2.636-.61.567 0 1.133.076.566.076 1.176.381.959.48 1.623 1.23.665.753 1.079 1.657.413.904.599 1.917.185 1.013.185 2.015 0 1.394-.338 2.7-.338 1.308-1.056 2.32-.72 1.014-1.82 1.635-1.1.62-2.624.62zm-.022-1.7q1.677 0 2.723-1.47 1.046-1.47 1.046-4.106 0-1.307-.284-2.331-.283-1.024-.784-1.743-.501-.719-1.187-1.1-.686-.381-1.514-.381-1.7 0-2.734 1.47-1.035 1.47-1.035 4.085 0 2.636 1.035 4.106 1.035 1.47 2.734 1.47zm16.752.545l-1.765-4.684 1.765-4.77h1.416l-1.765 4.77 1.765 4.684h-1.416zm-4.814-4.684l1.764-4.77h1.416l-1.764 4.77 1.764 4.684h-1.416l-1.764-4.684zm7.537-8.517h10.37v1.699h-4.227V45.69h-1.917V33.273h-4.226v-1.7zm10.783 3.224h1.808v4.182q0 .589-.021 1.242-.022.654-.066 1.285-.043.632-.109 1.188-.065.555-.174.925l.196.088q.153-.349.294-.73.142-.381.349-.85.207-.468.5-1.078.295-.61.752-1.416l2.745-4.836h1.808V45.69h-1.808l.022-4.531q.022-1.177.109-2.255.087-1.078.261-1.906l-.174-.044q-.152.349-.294.708-.142.36-.36.84-.217.478-.533 1.1-.316.62-.817 1.491l-2.614 4.597h-1.874V34.798zM210.16 45.69h-1.852V34.798h1.852v4.487h4.575v-4.487h1.852V45.69h-1.852v-4.727h-4.575v4.727zm11.132-10.892v4.03h1.329q.544 0 .947.01.403.012.708.044.305.033.567.088.261.054.566.163.85.305 1.383 1.1.534.795.534 1.971 0 .458-.174 1.068-.174.61-.632 1.144-.457.533-1.252.904-.796.37-2.059.37h-3.703V34.798h1.786zm4.139 7.406q0-.958-.588-1.448t-1.678-.49h-1.873v3.877h1.764q1.003 0 1.689-.457.686-.458.686-1.482zm5.947 3.486h-1.852V34.798h1.852v4.727h1.002q.697 0 1.079-.305.38-.305.642-1.002.153-.414.305-.915.153-.501.305-.97.153-.468.316-.87.163-.404.36-.665h2.09q-.326.327-.555.85-.229.522-.381.958-.24.675-.403 1.144-.163.468-.36.86-.326.654-.773.97-.446.315-1.143.468v.196q.827.152 1.252.5.425.35.708 1.09.109.305.294.86.185.556.403 1.1.24.567.458 1.025.218.457.588.871h-2.179q-.174-.218-.326-.577-.153-.36-.294-.795-.142-.436-.284-.915-.141-.48-.294-.959-.24-.74-.61-1.154-.37-.414-1.198-.414h-1.002v4.814zm11.633.218q-2.178 0-3.398-1.46-1.22-1.46-1.22-4.204 0-2.745 1.22-4.204 1.22-1.46 3.398-1.46t3.398 1.46q1.22 1.46 1.22 4.204 0 2.745-1.22 4.204-1.22 1.46-3.398 1.46zm0-1.503q1.111 0 1.863-1.024.751-1.024.751-3.137t-.751-3.148q-.752-1.035-1.863-1.035-1.133 0-1.873 1.035-.741 1.035-.741 3.148 0 2.113.74 3.137.741 1.024 1.874 1.024zm12.373 5.163v-1.765q0-1.72.11-2.821.108-1.1.217-1.688l-.196-.022q-.305 1.263-.958 1.95-.654.686-1.808.686-.872 0-1.514-.469-.643-.468-1.079-1.252-.435-.784-.653-1.808-.218-1.024-.218-2.135 0-1.133.218-2.146t.653-1.775q.436-.763 1.079-1.198.642-.436 1.514-.436 1.154 0 1.808.686.653.686.958 1.95l.196-.022q-.109-.588-.218-1.743-.109-1.154-.109-2.549v-1.437h1.787v1.437q0 1.395-.11 2.55-.108 1.154-.217 1.742l.196.022q.305-1.264.959-1.95.653-.686 1.808-.686.85 0 1.503.436.653.435 1.09 1.198.435.762.653 1.775.217 1.013.217 2.146 0 1.11-.217 2.135-.218 1.024-.654 1.808-.436.784-1.09 1.252-.653.469-1.502.469-1.155 0-1.808-.686-.654-.687-.959-1.95l-.196.022q.109.588.218 1.688t.109 2.821v1.765h-1.787zm-2.113-5.207q.937 0 1.493-1.078.555-1.079.555-3.04 0-1.916-.555-3.016-.556-1.1-1.493-1.1-.915 0-1.514 1.1t-.599 3.017q0 1.96.6 3.039.598 1.078 1.513 1.078zm5.991 0q.915 0 1.525-1.078.61-1.079.61-3.04 0-1.916-.61-3.016t-1.525-1.1q-.915 0-1.47 1.1-.556 1.1-.556 3.017 0 1.96.556 3.039.555 1.078 1.47 1.078zm11.764 5.207v-1.765q0-1.72.109-2.821.109-1.1.217-1.688l-.196-.022q-.305 1.263-.958 1.95-.654.686-1.808.686-.872 0-1.514-.469-.643-.468-1.079-1.252-.435-.784-.653-1.808-.218-1.024-.218-2.135 0-1.133.218-2.146t.653-1.775q.436-.763 1.079-1.198.642-.436 1.514-.436 1.154 0 1.808.686.653.686.958 1.95l.196-.022q-.108-.588-.217-1.743-.11-1.154-.11-2.549v-1.437h1.787v1.437q0 1.395-.109 2.55-.109 1.154-.218 1.742l.196.022q.305-1.264.959-1.95.653-.686 1.808-.686.85 0 1.503.436.654.435 1.09 1.198.435.762.653 1.775.218 1.013.218 2.146 0 1.11-.218 2.135-.218 1.024-.654 1.808-.435.784-1.089 1.252-.653.469-1.503.469-1.155 0-1.808-.686-.654-.687-.959-1.95l-.196.022q.11.588.218 1.688.109 1.1.109 2.821v1.765h-1.786zm-2.113-5.207q.936 0 1.492-1.078.555-1.079.555-3.04 0-1.916-.555-3.016-.556-1.1-1.492-1.1-.915 0-1.514 1.1-.6 1.1-.6 3.017 0 1.96.6 3.039.599 1.078 1.514 1.078zm5.99 0q.915 0 1.525-1.078.61-1.079.61-3.04 0-1.916-.61-3.016t-1.525-1.1q-.915 0-1.47 1.1-.556 1.1-.556 3.017 0 1.96.556 3.039.555 1.078 1.47 1.078zM86.468 59.544h-6.426v3.267h2.2q.392 0 .959.022.566.022 1.263.196.501.13 1.046.403.544.272.991.752.447.479.74 1.22.295.74.295 1.808 0 .828-.207 1.46-.207.631-.577 1.176-.501.74-1.199 1.143-.697.403-1.426.588-.73.186-1.395.218-.664.033-1.078.033h-3.529V57.714h8.343v1.83zm-4.291 4.923h-2.135v5.642h2.004q.501 0 .97-.054.468-.055.838-.23.74-.304 1.166-.958.425-.653.425-1.634 0-.98-.425-1.633-.425-.654-1.188-.915-.413-.153-.773-.185-.36-.033-.882-.033zm9.41-.305h-1.764q-.109-1.525.904-2.484 1.013-.958 2.974-.958 2.048 0 2.854 1.035.806 1.034.806 2.886v7.189h-1.852v-.174q0-.218.12-.817.12-.6.228-1.166h-.196q-.348 1.002-1.056 1.689-.708.686-2.124.686-.85 0-1.449-.262-.599-.261-.991-.697-.392-.435-.577-.99-.185-.556-.185-1.145 0-1.35.599-2.113.599-.762 1.525-1.154.925-.392 2.025-.534 1.1-.142 2.103-.229v-.414q0-2.352-2.026-2.352-1.068 0-1.58.544-.512.545-.337 1.46zm1.57 6.492q1.045 0 1.666-.763.62-.762.708-1.939.065-.98 0-1.982-1.373.109-2.233.338-.86.228-1.362.577-.5.348-.686.795-.185.447-.185.991 0 .915.588 1.449t1.503.534zm8.974 1.176h-1.851V60.938h1.851v4.487h4.575v-4.487h1.852V71.83h-1.852v-4.727h-4.575v4.727zm11.198 0h-1.852V60.938h1.852v4.727h1.002q.697 0 1.078-.305.381-.305.643-1.002.152-.414.305-.915.152-.501.305-.97.152-.468.315-.87.164-.404.36-.665h2.091q-.327.327-.555.85-.23.522-.382.958-.24.675-.403 1.144-.163.468-.359.86-.327.654-.773.97-.447.315-1.144.468v.196q.828.152 1.253.5.424.35.708 1.09.108.305.294.86.185.556.403 1.1.24.567.457 1.025.218.457.588.871h-2.178q-.174-.218-.327-.577-.152-.36-.294-.795-.142-.436-.283-.915-.142-.48-.294-.959-.24-.74-.61-1.154-.37-.414-1.198-.414h-1.002v4.814zm8.845-.915l1.764-4.684-1.764-4.77h-1.416l1.765 4.77-1.765 4.684h1.416zm4.813-4.684l-1.764-4.77h-1.415l1.764 4.77-1.764 4.684h1.415l1.764-4.684zm3.813 2.571q.5 0 .871.36.37.359.37 1.34 0 .587-.152 1.208-.153.621-.381 1.166-.23.544-.49.98-.262.436-.502.632l-.718-.196q.152-.218.326-.545.175-.327.316-.654.142-.326.24-.631t.098-.48q-.501 0-.872-.403-.37-.403-.37-1.209 0-.762.381-1.165.382-.403.883-.403zm7.276 1.525q.283 0 .588-.011.305-.01.555-.142.25-.13.425-.414.174-.283.24-.85.065-.653.12-1.578.054-.926.098-1.983.043-1.056.098-2.19.054-1.132.098-2.221h6.557V71.83h-1.808v-9.28h-3.137q-.066 1.024-.12 2.102-.055 1.078-.11 2.048-.054.97-.108 1.732t-.098 1.154q-.065.567-.24 1.013-.174.447-.544.752-.37.305-.991.468-.621.163-1.602.163l-.021-1.655zm11.698-9.39h1.808v4.183q0 .589-.022 1.242-.022.654-.065 1.285-.044.632-.11 1.188-.065.555-.173.925l.196.088q.152-.349.294-.73.141-.381.348-.85.207-.468.501-1.078.294-.61.752-1.416l2.745-4.836h1.808V71.83h-1.808l.021-4.531q.022-1.177.11-2.255.087-1.078.26-1.906l-.173-.044q-.153.349-.295.708-.141.36-.359.84-.218.478-.534 1.1-.316.62-.817 1.491l-2.614 4.597h-1.873V60.938zm11 0h1.809v9.433h4.51v-9.432h1.807v9.432h1.264v4.597h-1.46V71.83h-7.93V60.938zm17.58 7.255l1.809.022q-.044 1.83-1.133 2.832-1.089 1.002-3.006 1.002-1.176 0-2.037-.436-.86-.436-1.416-1.187-.555-.752-.817-1.776-.261-1.023-.261-2.178 0-1.22.283-2.266.283-1.045.85-1.819.566-.773 1.426-1.22.861-.446 2.016-.446 1.045 0 1.808.37.762.37 1.263.991.501.621.74 1.46.24.839.24 1.775 0 .284-.021.578-.022.294-.066.599h-6.644q.022 2.156.806 3.104t1.939.948q.85 0 1.536-.523t.686-1.83zm-2.374-5.99q-1.176 0-1.83.86-.653.86-.74 2.254h4.88v-.196q0-1.46-.6-2.189-.599-.73-1.71-.73zm8.257 9.628h-1.852V60.938h1.852v4.487h4.574v-4.487h1.852V71.83h-1.852v-4.727h-4.574v4.727zm10.39-3.093q-.065.566.12.936.186.37.523.6.338.228.796.315.457.087.958.087 1.068-.021 1.656-.468.588-.447.588-1.318 0-.937-.523-1.383-.523-.447-1.481-.447h-1.94v-1.546h1.787q.85 0 1.34-.436.49-.436.49-1.264 0-.915-.523-1.34-.522-.424-1.633-.424-.502 0-.915.098-.414.098-.698.337-.283.24-.413.676-.131.436-.066 1.11h-1.699q-.065-.98.207-1.655t.795-1.089q.523-.414 1.253-.61.73-.196 1.557-.196.806 0 1.525.163.72.164 1.242.523.523.36.828.915.305.556.305 1.34 0 .915-.534 1.58-.534.664-1.492.773v.305q.588 0 1.045.228.458.229.774.578.316.348.479.784.163.435.163.871 0 .893-.326 1.503-.327.61-.904 1.002-.578.393-1.351.567-.773.174-1.667.174-2.134.022-3.137-.773-1.002-.795-.827-2.516h1.699zm8.671-7.8h1.808v4.183q0 .589-.022 1.242-.021.654-.065 1.285-.044.632-.109 1.188-.065.555-.174.925l.196.088q.152-.349.294-.73t.349-.85q.206-.468.5-1.078.295-.61.752-1.416l2.745-4.836h1.808V71.83h-1.808l.022-4.531q.022-1.177.109-2.255.087-1.078.261-1.906l-.174-.044q-.153.349-.294.708-.142.36-.36.84-.218.478-.533 1.1-.316.62-.817 1.491l-2.615 4.597h-1.873V60.938zm12.2 3.312q0 .98.73 1.47.729.49 1.905.49h1.634v-3.833h-1.873q-1.09 0-1.743.424-.654.425-.654 1.449zm-.066 7.581h-2.2q.152-.152.294-.501.141-.349.283-.795.142-.447.283-.904.142-.458.272-.828.305-.806.828-1.23.523-.426 1.438-.47v-.304q-.85 0-1.416-.229t-.915-.599q-.348-.37-.49-.85-.142-.479-.142-.958 0-1.111.523-1.84.523-.73 1.35-1.057.284-.11.556-.175.273-.065.589-.098.315-.032.718-.043.403-.011.97-.011h3.18V71.83h-1.786v-4.074h-1.677q-.414 0-.72.033-.304.033-.522.163-.218.131-.37.382-.153.25-.284.686-.174.588-.348 1.361-.174.774-.414 1.449zm26.86-8.692q-1.176 0-1.83-.654-.653-.653-.653-2.156 0-1.503.653-2.157.654-.653 1.83-.653 1.176 0 1.808.653.632.654.632 2.157 0 1.503-.632 2.156-.632.654-1.808.654zm0-1.002q.632 0 .904-.436.272-.435.272-1.372t-.272-1.373q-.272-.435-.904-.435-1.198 0-1.198 1.808t1.198 1.808zm-2.113 3.093v-1.198h4.27v1.198h-4.27zm-2.963 4.118l.175-.088q-.349-.958-.501-1.84-.153-.883-.153-1.58v-8.125h1.677V71.83h-1.503l-5.25-8.757q-.588-1.002-.882-1.754-.294-.752-.577-1.514l-.131.065q.24 1.046.36 1.95.12.904.12 1.601v8.409h-1.678V57.714h1.72l5.011 8.474q.567.958.904 1.677.338.72.708 1.482zm11.22.806h6.883v1.677h-8.169v-2.07q1.46-.74 2.614-1.666 1.155-.926 1.96-1.939.807-1.013 1.22-2.058.415-1.046.415-2.07 0-.784-.186-1.329-.185-.544-.512-.871-.326-.327-.762-.48-.436-.152-.937-.152-.936 0-1.568.458-.632.457-.632 1.633 0 .501.13 1.111h-1.83q-.239-.544-.239-1.176 0-.871.338-1.58.338-.707.904-1.187.566-.479 1.34-.74.773-.262 1.666-.262.937 0 1.732.273.795.272 1.362.817.566.544.893 1.372.326.828.326 1.939 0 1.503-.707 2.82-.708 1.319-1.754 2.375-1.046 1.057-2.266 1.82-1.22.762-2.222 1.176v.109zm14.53-7.494q.675 0 1.361.25.686.25 1.242.795.555.545.915 1.395t.36 2.07q0 1.197-.36 2.112t-.97 1.514q-.61.6-1.427.904-.817.305-1.71.305-1.002 0-1.84-.348-.84-.349-1.438-1.133-.6-.784-.937-2.037-.338-1.253-.338-3.06 0-1.722.284-3.17.283-1.449.893-2.505.61-1.057 1.568-1.645.959-.588 2.288-.588 1.72 0 2.69.958.97.959.839 2.462h-1.961q.044-.872-.457-1.34-.501-.468-1.286-.468-.915 0-1.514.544-.599.545-.958 1.373-.36.828-.512 1.786-.153.959-.153 1.786l.175.022q.522-1.045 1.35-1.514.828-.468 1.895-.468zm-.545 7.711q1.002 0 1.743-.73.74-.73.74-2.341 0-1.7-.74-2.44-.741-.74-1.721-.74-1.111 0-1.83.794-.72.796-.72 2.364 0 1.394.73 2.244.73.85 1.798.85zm10.609 1.46h-2.091q.196-2.374.718-4.27.523-1.895 1.264-3.398.74-1.503 1.645-2.68.904-1.176 1.862-2.09h-7.145v-1.678h9.062v1.503q-.893.915-1.764 1.95-.872 1.034-1.612 2.472-.741 1.438-1.253 3.41-.512 1.97-.686 4.781zm8.125-9.694q-.043-.261-.065-.501-.022-.24-.022-.458 0-.915.316-1.612.316-.697.893-1.165.578-.468 1.362-.697.784-.229 1.699-.229.871 0 1.623.218t1.307.664q.556.447.871 1.144.316.697.316 1.656 0 1.307-.631 2.091-.632.784-1.743 1.198v.24q1.133.457 1.753 1.35.621.894.621 2.2 0 1.024-.348 1.743-.349.72-.959 1.188-.61.468-1.405.686-.795.218-1.71.218-2.048 0-3.115-.915-1.068-.915-1.068-2.767 0-.392.066-.85h1.939q-.066.436-.066.806 0 1.177.686 1.667.687.49 1.689.49.958 0 1.644-.588.687-.588.687-1.873 0-.654-.196-1.122-.196-.469-.469-.774-.272-.305-.588-.446-.316-.142-.534-.142h-1.437v-1.895h1.437q.218 0 .534-.13.316-.132.588-.404.273-.272.469-.719.196-.446.196-1.078 0-.654-.185-1.09-.186-.435-.49-.696-.306-.262-.73-.382-.425-.12-.904-.12-.937 0-1.58.502-.642.5-.642 1.677 0 .48.087.915h-1.896zm12.505 9.846q-.501 0-.883-.424-.38-.425-.38-1.188 0-.762.38-1.165.382-.403.883-.403.5 0 .871.403.37.403.37 1.165 0 .763-.37 1.188-.37.424-.871.424z" fill="#fff"/></svg>