<svg width="100%" height="100%" viewBox="0 0 122 32" fill="none" xmlns="http://www.w3.org/2000/svg" preserveAspectRatio="none"><path d="M35.7529 14.9686L36.2232 13.4795L34.6675 13.5277C34.5361 13.5277 33.5808 13.5009 32.654 12.8362C32.7231 12.8429 32.7922 12.8523 32.8626 12.8523C33.8166 12.8523 34.7394 12.2839 35.1093 11.4718L35.7787 10.004C34.9399 10.0148 34.173 9.91026 34.173 9.91026C34.1662 9.90894 33.5618 9.83252 32.8626 9.12621C32.3613 8.61955 31.7406 8.3515 31.0686 8.3515C30.7745 8.3515 30.5117 8.40377 30.2853 8.47482C30.3206 8.35547 30.3545 8.23488 30.3734 8.11025C30.5876 6.73641 29.6932 5.68828 29.6932 5.6896L28.5238 4.2568L27.7988 5.94029C27.7961 5.94558 27.6132 6.33967 27.2853 6.53271C27.1864 6.03813 26.9438 5.48184 26.4248 4.9498C25.4464 3.94723 24.2554 3.79844 23.632 3.79844C23.3434 3.79844 23.1375 3.8293 23.0873 3.83732L21.6753 4.11206C21.7567 3.79977 21.9301 3.25697 22.2472 2.76776L23.0263 1.56678L21.0656 1.78794L20.4409 0.475808L19.2322 1.0923L18.1143 0L16.9991 1.0923L15.7864 0.475808L15.163 1.78794L13.2036 1.56678L13.9841 2.76776C14.3012 3.25697 14.4746 3.79844 14.5546 4.11074L13.2077 3.84798L13.1616 3.83996C13.0939 3.8293 12.8892 3.79844 12.5993 3.79844C11.9759 3.79844 10.7849 3.94856 9.80919 4.9498C9.28885 5.48052 9.0463 6.03813 8.94605 6.53271C8.62088 6.34232 8.43925 5.95368 8.43925 5.95368L7.71293 4.26085L6.52462 5.703C6.37956 5.88934 5.6628 6.87445 5.85789 8.11289C5.87825 8.23621 5.91075 8.35688 5.946 8.47614C5.72107 8.40509 5.45815 8.35282 5.16415 8.35282C4.49202 8.35282 3.87143 8.62087 3.36871 9.12753C2.67214 9.8312 2.07049 9.91026 2.07599 9.91026C2.07599 9.91026 1.44043 10.0228 0.456676 10.0055L1.12199 11.4731C1.49197 12.2867 2.41604 12.8536 3.36871 12.8536C3.44052 12.8536 3.5096 12.8442 3.58009 12.8375C2.65593 13.5023 1.7006 13.5291 1.58539 13.5305L0 13.4795L0.4797 14.9672C0.720922 15.7339 1.52712 17.0045 3.07187 17.1413C2.90388 17.8382 2.53124 18.6183 1.71282 18.9547L0.532567 19.4359L1.17618 20.5443C1.53934 21.1421 2.39168 21.8418 3.60577 21.8418C3.86869 21.8404 4.12204 21.8149 4.36601 21.764C4.42835 22.0375 4.5069 22.3109 4.59908 22.5816C4.96083 23.6458 4.64921 24.3883 4.64513 24.3964L4.06244 25.604L5.36331 25.9431C5.3796 25.9485 5.77252 26.0543 6.26444 26.0543C6.48795 26.0543 6.70075 26.0316 6.90124 25.9846C7.05302 25.9498 7.19807 25.9029 7.33764 25.8466C7.50562 26.1455 7.71027 26.4176 7.94875 26.6615C8.78205 27.5072 9.96231 27.9361 11.4583 27.9361H11.4637L12.5315 27.9227L10.3255 28.8288L12.0003 29.629C12.6088 29.9225 13.331 30.2696 14.0654 30.535L13.8568 31.1007L14.434 31.3607C14.4855 31.3834 15.5953 31.8754 17.4408 31.9799C17.4408 31.9799 17.8866 32 18.1319 32C18.3772 32 18.8176 31.9786 18.8176 31.9786C20.6509 31.8713 21.7526 31.3847 21.8041 31.3607L22.3827 31.0993L22.1713 30.5324C22.9274 30.259 23.6754 29.8984 24.2581 29.6169L25.9018 28.8275L23.7025 27.9201L24.7744 27.9335C26.2717 27.9335 27.4533 27.5046 28.2853 26.6575C28.5225 26.4149 28.727 26.1428 28.8964 25.8439C29.036 25.9003 29.1824 25.9471 29.3341 25.982C29.5333 26.0289 29.746 26.0517 29.9696 26.0517C30.4534 26.0517 30.8504 25.9458 30.8613 25.9431L32.1676 25.6014L31.5984 24.4165C31.5849 24.3857 31.2732 23.6444 31.635 22.5789C31.7271 22.3068 31.8044 22.0334 31.8667 21.7613C32.1119 21.8123 32.368 21.839 32.6323 21.839C34.1784 21.839 34.9197 20.7628 35.0633 20.5296L35.7001 19.4332L34.5199 18.9534C33.7001 18.6169 33.3288 17.8356 33.1621 17.1399C34.6852 17.0112 35.5037 15.7406 35.7529 14.9686ZM14.6576 4.6241L14.6414 4.62807L14.6549 4.61062L14.6576 4.6241Z" fill="white" data-color-group="0"/><path d="M18.1159 4.55859C16.8666 4.55992 15.9302 4.96468 15.7256 5.44049L18.1159 6.37333L20.5062 5.44049C20.303 4.96468 19.3666 4.55992 18.1159 4.55859Z" fill="white" data-color-group="0"/><path d="M18.14 29.2537H18.1373H18.1169H18.0939H18.0926C17.3351 29.259 16.2931 29.1049 15.7903 28.9602L15.186 30.5779C15.5844 30.7186 16.934 30.9868 18.1169 30.9868C19.2972 30.9868 20.6482 30.7173 21.0453 30.5779L20.4422 28.9602C19.9381 29.1063 18.8974 29.259 18.14 29.2537Z" fill="white" data-color-group="0"/><path d="M22.713 27.6455C22.2632 27.8975 21.2591 28.2755 20.675 28.4511L21.1656 29.7874C22.0693 29.5435 22.8146 29.2579 23.4312 28.9523L22.4136 28.6173L22.713 27.6455Z" fill="white" data-color-group="0"/><path d="M13.5192 27.6455L13.82 28.6173L12.801 28.9523C13.4162 29.2579 14.1656 29.5435 15.0653 29.7874L15.5559 28.4511C14.9745 28.2755 13.9691 27.8962 13.5192 27.6455Z" fill="white" data-color-group="0"/><path d="M18.1157 3.01181C19.0574 3.01181 19.9816 3.23429 20.6916 3.62565C20.7567 3.40987 20.8475 3.14852 20.9708 2.87509L20.7025 2.90727L20.4207 2.93671L20.3014 2.68338L19.9423 1.93282L19.2878 2.27059L19.0331 2.39929L18.8298 2.20087L18.1184 1.50391L17.4084 2.20087L17.2051 2.39929L16.9504 2.27059L16.2918 1.93282L15.9368 2.68338L15.8148 2.93671L15.533 2.90727L15.2646 2.87509C15.388 3.14984 15.4774 3.40987 15.5438 3.62565C16.2552 3.23429 17.1766 3.01181 18.1157 3.01181Z" fill="white" data-color-group="0"/><path d="M32.4942 11.6863C32.6163 11.728 32.7409 11.7467 32.8642 11.7467C33.3967 11.7467 33.9117 11.4062 34.0892 11.0162C34.0892 11.0162 33.1122 10.9572 32.062 9.90237C31.7274 9.56064 31.3737 9.45874 31.0701 9.45874C30.5986 9.45874 30.2449 9.70537 30.2449 9.70537C31.5132 10.3729 31.772 11.4451 32.4942 11.6863Z" fill="white" data-color-group="0"/><path d="M3.36745 11.7467C3.49071 11.7467 3.6154 11.728 3.73468 11.6863C4.45959 11.4451 4.71976 10.3729 5.98813 9.70537C5.98813 9.70537 5.63312 9.45874 5.16422 9.45874C4.85933 9.45874 4.50564 9.56064 4.16966 9.90237C3.12082 10.9572 2.1438 11.0162 2.1438 11.0162C2.31861 11.4062 2.83488 11.7467 3.36745 11.7467Z" fill="white" data-color-group="0"/><path d="M32.8385 16.0436C32.8601 16.0449 32.8791 16.0449 32.9022 16.0449C34.2315 16.0449 34.6826 14.6362 34.6826 14.6362H34.657C34.413 14.6362 32.436 14.5799 31.039 12.8227C30.1189 11.6674 29.3655 10.6514 27.8762 10.2521L27.73 10.2266L27.6974 10.0791C27.6567 9.85399 27.8126 9.6435 28.1663 9.41565C30.2205 8.08474 28.8262 6.38794 28.8262 6.38794C28.8262 6.38794 28.2394 7.74565 26.9264 7.74565C26.8952 7.74565 26.8613 7.74432 26.8288 7.74432C26.6798 7.7363 26.5361 7.73093 26.3911 7.70008L26.1485 7.65318C26.1485 7.65318 26.5226 6.64656 25.6201 5.72174C24.9399 5.02346 24.112 4.90552 23.6336 4.90552C23.3924 4.90552 23.2393 4.93637 23.2393 4.93637C23.6932 5.52342 24.0211 6.49645 23.4968 7.0969C23.0442 7.61299 21.9385 7.63846 21.9385 8.40779C21.9385 8.73349 22.246 9.1141 22.7989 9.45593C24.4616 10.492 26.112 11.8658 26.7976 13.7074C27.6554 16.0047 26.6893 17.5286 25.3098 18.4025C25.3098 18.4025 25.7421 18.7965 26.3695 18.8461C26.4968 18.8582 26.6215 18.8636 26.738 18.8636C28.0619 18.8636 28.7462 18.2497 28.7462 18.2497C28.7462 18.2497 28.6337 19.0981 27.944 19.8862C27.3085 20.614 26.4738 21.0416 25.2014 21.0603C25.2014 21.0603 25.1607 21.6447 25.7245 22.15C26.0849 22.469 26.9183 22.5735 26.9183 22.5735C26.9183 22.5735 25.3585 22.8858 25.1865 25.1644C25.093 26.3988 24.7745 26.8277 24.7745 26.8277H24.803C28.4224 26.8277 28.3288 23.7571 28.3288 23.7571C28.3288 23.7571 28.5809 24.6657 29.5904 24.903C29.7123 24.9352 29.8424 24.9473 29.9671 24.9473C30.2923 24.9473 30.5741 24.8722 30.5741 24.8722C30.5741 24.8722 30.0457 23.7691 30.5701 22.2264C31.0051 20.9464 30.9346 19.9975 30.9346 19.9975C30.9346 19.9975 31.4224 20.7266 32.6311 20.7333H32.6433C33.6501 20.7333 34.0891 19.9787 34.0891 19.9787C31.6759 18.9882 31.9143 15.7902 31.9143 15.7902C31.9143 15.7902 32.2273 16.0207 32.8385 16.0436ZM32.1122 19.3836C31.1311 18.9051 30.5105 17.6345 30.36 17.1761C30.1974 19.6959 28.9535 21.445 27.4995 23.1284C26.7448 24.001 26.4819 24.8494 26.4819 24.8494C26.4819 24.8494 26.6269 23.8884 27.28 23.1057C28.6365 21.4932 29.9251 19.4868 30.0213 17.1667C30.0877 15.5476 29.6663 14.2341 29.0091 13.1525C29.3763 14.2797 29.3248 15.6602 28.0768 16.9483C28.0768 16.9483 30.5606 14.0036 27.0877 10.9852C25.6974 9.83654 24.177 9.1275 23.3938 8.6249C26.2231 9.53764 27.6039 8.53243 27.6039 8.53243C26.7001 9.30714 25.5307 9.29374 24.8057 9.1825C25.0022 9.27761 25.2069 9.37677 25.4277 9.49339C27.8126 10.7748 29.9563 12.8831 30.3221 15.8036V15.7808C30.8777 18.6478 32.1122 19.3836 32.1122 19.3836Z" fill="white" data-color-group="0"/><path d="M9.31321 22.5735C9.31321 22.5735 10.1466 22.4703 10.507 22.15C11.0693 21.6447 11.03 21.0603 11.03 21.0603C9.75633 21.0429 8.92295 20.614 8.28341 19.8876C7.59906 19.0995 7.48526 18.2511 7.48526 18.2511C7.48526 18.2511 8.16952 18.8649 9.49209 18.8649C9.61128 18.8649 9.73464 18.8595 9.86198 18.8475C10.4894 18.7979 10.923 18.4038 10.923 18.4038C9.54354 17.5299 8.57608 16.0047 9.43249 13.7074C10.1195 11.8671 11.7686 10.492 13.4312 9.45593C13.984 9.1141 14.2917 8.73481 14.2917 8.40779C14.2917 7.63846 13.1873 7.61299 12.7347 7.0969C12.2103 6.49645 12.5396 5.52209 12.9921 4.93637C12.9921 4.93637 12.8418 4.90552 12.5992 4.90552C12.1222 4.90552 11.2943 5.02346 10.6141 5.72174C9.70887 6.64656 10.0843 7.65318 10.0843 7.65318L9.8417 7.70008C9.69665 7.73093 9.55169 7.7363 9.40398 7.74432C9.37015 7.74432 9.34031 7.74565 9.30781 7.74565C7.99206 7.74565 7.40804 6.38927 7.40804 6.38927C7.40804 6.38927 6.01366 8.08606 8.06654 9.41706C8.42022 9.64491 8.57475 9.85532 8.53402 10.0804L8.50152 10.2279L8.35248 10.2534C6.866 10.6528 6.11125 11.6687 5.19117 12.8241C3.79679 14.5786 1.82246 14.6362 1.57593 14.6362H1.54883C1.54883 14.6362 2.00001 16.0449 3.32931 16.0449C3.351 16.0449 3.36995 16.0449 3.39298 16.0436C4.00409 16.0221 4.31846 15.7902 4.31846 15.7902C4.31846 15.7902 4.55428 18.9869 2.14365 19.9787C2.14365 19.9787 2.5827 20.7333 3.58948 20.7333H3.6017C4.81171 20.7266 5.29823 19.9975 5.29823 19.9975C5.29823 19.9975 5.22774 20.9464 5.66139 22.2264C6.18572 23.7691 5.65998 24.8722 5.65998 24.8722C5.65998 24.8722 5.94185 24.9473 6.26569 24.9473C6.3917 24.9473 6.52046 24.9352 6.64107 24.903C7.64918 24.6657 7.90262 23.7571 7.90262 23.7571C7.90262 23.7571 7.81044 26.8277 11.4298 26.8277H11.4555C11.4555 26.8277 11.1385 26.3988 11.0463 25.1644C10.8728 22.8858 9.31321 22.5735 9.31321 22.5735ZM8.73193 23.1284C7.27796 21.445 6.03536 19.6959 5.87136 17.1761C5.72099 17.6332 5.10306 18.9051 4.12205 19.3836C4.12205 19.3836 5.35508 18.6478 5.90935 15.7808V15.8036C6.27658 12.8844 8.4189 10.7748 10.8051 9.49339C11.0233 9.37545 11.2306 9.27629 11.4258 9.1825C10.7008 9.29374 9.53141 9.30714 8.62753 8.53243C8.62753 8.53243 10.0084 9.53764 12.8364 8.6249C12.0531 9.1275 10.5341 9.83654 9.1438 10.9852C5.66945 14.0036 8.15465 16.9483 8.15465 16.9483C6.90532 15.6589 6.85511 14.2797 7.22234 13.1525C6.56385 14.2354 6.14375 15.5476 6.21149 17.1667C6.30634 19.4868 7.59498 21.4932 8.94872 23.1057C9.60322 23.8871 9.75085 24.8494 9.75085 24.8494C9.75085 24.8494 9.48527 24.001 8.73193 23.1284Z" fill="white" data-color-group="0"/><path d="M15.4394 11.3469C15.499 11.4099 15.5573 11.4783 15.6129 11.5467C15.6264 11.5627 15.6386 11.5775 15.6521 11.5962C15.7037 11.6646 15.7565 11.737 15.8067 11.8107C15.8175 11.8255 15.8284 11.8428 15.8405 11.8603C15.9015 11.9514 15.9584 12.0452 16.0153 12.1417C16.5371 13.033 17.3731 13.5652 18.1143 13.5665C18.8568 13.5652 19.6902 13.033 20.2146 12.1417C20.2729 12.0426 20.3312 11.946 20.3921 11.8562C20.4016 11.8428 20.4111 11.8307 20.4192 11.8173C20.4707 11.741 20.5249 11.6659 20.5819 11.5935C20.594 11.5775 20.6049 11.564 20.6157 11.5506C20.674 11.4796 20.7336 11.4099 20.7946 11.3456C20.8054 11.3348 20.8135 11.3255 20.823 11.3175C21.0886 11.048 21.4057 10.843 21.8203 10.729L21.636 10.6232H21.6252L20.8908 10.2009L20.136 9.77344L18.1197 10.859L18.1143 10.8551L18.1102 10.859L16.0926 9.77344L15.3392 10.1996L14.6034 10.6218H14.5952L14.4082 10.7277C14.8242 10.8417 15.1399 11.0441 15.4069 11.3134C15.4191 11.3242 15.4272 11.3362 15.4394 11.3469ZM17.2985 11.2598H18.1522H19.0045V11.8389C18.8041 11.5962 18.4138 11.6458 18.4138 11.6458V12.4808C18.4138 12.4808 18.4287 12.891 18.5736 13.0693H18.1522H17.7294C17.8772 12.8923 17.8907 12.4808 17.8907 12.4808V11.6458C17.8907 11.6458 17.5018 11.5962 17.2985 11.8389V11.2598Z" fill="white" data-color-group="0"/><path d="M17.9409 10.1366V6.74692L15.7593 6.01514L16.3351 9.30022L17.9409 10.1366ZM17.4721 7.57927V8.12348L17.3664 8.07518C17.361 8.07121 17.2065 8.03631 16.9355 7.82458C16.4883 7.48143 16.4802 7.16508 16.4802 7.16508L17.4721 7.57927Z" fill="white" data-color-group="0"/><path d="M19.8974 9.30022L20.4706 6.01514L18.2903 6.74692V10.1366L19.8974 9.30022ZM18.7592 7.57927L19.7511 7.16649C19.7511 7.16649 19.7429 7.48276 19.2944 7.82591C19.0248 8.03763 18.8689 8.07254 18.8635 8.0765L18.7578 8.12481V7.57927H18.7592Z" fill="white" data-color-group="0"/><path d="M14.8552 17.9952C15.068 18.0717 15.3254 18.0877 15.4568 18.0877C15.4623 18.0717 15.4691 18.0516 15.4759 18.0274C15.488 17.9885 15.4989 17.951 15.5071 17.9081C15.5436 17.7205 15.5572 17.5074 15.5598 17.3706C15.4704 17.3157 15.3444 17.2179 15.274 17.0717C15.1927 16.9029 15.0775 16.8252 14.9081 16.8252C14.6885 16.8252 14.4528 16.9552 14.3525 17.0168C14.2726 17.4846 14.6208 17.9095 14.8552 17.9952Z" fill="white" data-color-group="0"/><path d="M19.6808 16.196C19.2756 16.6317 18.4829 17.3902 18.4436 17.4291L18.3962 17.4774L15.8907 17.4385C15.8893 17.6838 15.8487 17.8928 15.8094 18.0457C15.8026 18.0712 15.7959 18.098 15.7891 18.1247L18.7702 18.6542C19.0805 18.4397 19.9341 17.8232 20.2648 17.582C20.0236 17.2334 20.0005 16.8206 20.0547 16.5298C19.8976 16.4293 19.7769 16.3166 19.6808 16.196Z" fill="white" data-color-group="0"/><path d="M20.0211 13.2157C19.4438 13.7827 18.8896 13.9918 18.395 14.0401C18.3056 14.0494 18.2148 14.0548 18.1226 14.0548H18.1159H18.1104C18.0183 14.0548 17.9261 14.0494 17.8367 14.0401C17.75 14.032 17.6592 14.0186 17.5685 13.9985C17.5359 14.1258 17.4952 14.3926 17.6118 14.6445C17.7161 14.8737 17.9289 15.0439 18.2392 15.1565L18.3435 15.1967L18.3449 15.3079C18.3449 15.3414 18.3693 16.0626 19.1647 16.2623C19.2947 16.1295 19.4126 16.0103 19.4994 15.9111C19.3367 15.5332 19.4221 15.1472 19.6579 14.9582C19.6471 14.9984 19.5441 15.9446 20.311 16.2958L20.4371 16.3548L20.3991 16.4874C20.3869 16.5276 20.1308 17.4431 21.059 17.7835L21.223 17.8452L21.1498 18.0033C21.1336 18.0382 20.7691 18.8692 21.6268 19.3409H23.4873V17.88C22.826 17.7996 22.5455 17.2742 22.4737 16.9016C22.1661 16.8493 21.9276 16.718 21.765 16.5035C21.3747 15.9956 21.7108 15.5304 21.7148 15.505C21.7135 15.509 21.7148 16.0049 22.0238 16.3105C22.1769 16.458 22.3586 16.5719 22.6336 16.5973L22.7691 16.6094L22.7813 16.7461C22.784 16.7756 22.8585 17.4457 23.4886 17.5517L23.4873 14.5681C23.4873 14.1057 23.6242 13.6406 23.7881 13.2117H20.0211V13.2157Z" fill="white" data-color-group="0"/><path d="M15.0142 14.5824L14.9641 16.483L15.1822 16.5152L15.7161 14.6923L15.4451 14.1321L15.0142 14.5824Z" fill="white" data-color-group="0"/><path d="M20.9003 23.2987C20.9166 23.2987 20.9356 23.3014 20.9532 23.3054C21.2852 23.3992 21.3691 24.5841 21.9518 24.6899C22.0088 24.702 22.0616 24.7047 22.1077 24.7047C22.2757 24.7047 22.376 24.6337 22.4844 24.5076C22.4844 24.5076 22.1917 24.0519 21.9722 23.745C21.6808 23.343 21.4546 22.8564 20.9125 22.8564C20.9003 22.8564 20.884 22.8564 20.8705 22.8577C20.6917 22.8672 20.5819 22.9529 20.5819 22.9529C20.3624 22.8162 20.1578 22.7693 19.9721 22.7693C19.632 22.7693 19.3678 22.9234 19.2363 22.9234H19.2309L18.0195 22.8055C17.8298 22.788 17.6807 22.599 17.6265 22.5253C17.613 22.5053 17.6062 22.4932 17.6062 22.4932C17.6062 22.461 17.6062 22.4275 17.6035 22.3981C17.5629 21.4182 16.7959 20.9988 16.5235 20.9921C16.5235 20.9921 16.556 20.8057 16.4815 20.7347L16.2145 21.055L15.3379 20.6194L15.9625 21.3418L15.4327 21.9303C15.3663 21.9973 15.3744 22.0884 15.4015 22.126L15.6305 22.3256L15.9205 22.1514C15.9354 22.1407 15.9612 22.138 15.9937 22.138C16.0737 22.138 16.1943 22.1581 16.3027 22.1581C16.4205 22.1581 16.5235 22.1327 16.5357 22.0227C16.4992 22.386 16.159 23.0173 16.3826 23.5132L16.548 23.8871L15.4774 23.7343L14.976 24.572C14.8216 24.8508 14.7972 25.1523 14.9463 25.3158L15.1332 25.5478C15.1332 25.5478 15.3961 25.2717 15.4557 25.0907L15.3704 24.9983C15.2985 24.9205 15.3026 24.8508 15.346 24.7664L15.6604 24.2504L16.9246 24.5452L16.991 24.4326C17.0764 24.2919 17.1997 24.249 17.3352 24.249C17.3907 24.249 17.4477 24.2557 17.5073 24.2651C17.7417 24.3106 18.1279 24.3723 18.5141 24.3723C18.9382 24.3723 19.3583 24.2972 19.5818 24.0493C20.0398 24.7208 20.9681 24.8281 20.8949 25.1685L20.651 26.3184C20.8122 26.3117 20.9681 26.301 21.1158 26.281L21.3475 25.084C21.3732 24.954 21.3976 24.7784 21.3976 24.7784C21.3082 24.6886 21.0914 24.4983 20.9694 24.2678C20.8055 23.9568 20.8949 23.7946 20.7418 23.3899C20.7472 23.3925 20.7933 23.2987 20.9003 23.2987ZM16.1712 21.618C16.1089 21.6167 16.0642 21.5644 16.0668 21.5027C16.0723 21.4437 16.1224 21.3968 16.1834 21.4022C16.2457 21.4048 16.2904 21.4584 16.2878 21.5174C16.2823 21.5764 16.2308 21.6219 16.1712 21.618Z" fill="white" data-color-group="0"/><path d="M14.4452 24.3869C14.4452 24.3869 14.8639 24.2167 14.9018 24.0947L14.8463 23.9567C14.807 23.8669 14.8124 23.769 14.8882 23.7154L15.3408 23.4059L16.097 23.5493C16.097 23.5493 15.9601 23.3804 15.9737 23.1539L15.2528 23.0024L14.5725 23.4126C14.2812 23.6284 14.2595 23.9809 14.3558 24.1899L14.4452 24.3869Z" fill="white" data-color-group="0"/><path d="M19.7891 26.3358C19.9246 26.3305 20.0736 26.3278 20.2376 26.3278C20.2376 26.3278 20.6265 25.2033 20.6481 25.1671C20.43 25.0719 19.9774 24.8347 19.8026 24.7261C19.9178 24.8963 20.1983 25.0921 20.1427 25.2422L19.7891 26.3358Z" fill="white" data-color-group="0"/><path d="M23.4911 19.6665H12.7415V23.666C12.7415 25.3012 13.938 26.3252 15.7036 26.3252C17.1793 26.3252 17.5681 26.3815 18.1169 26.9202C18.495 26.5477 18.808 26.4083 19.4503 26.356L19.4652 26.2943L19.804 25.2583C19.785 25.2355 19.2308 24.6122 19.2308 24.6122C19.0113 24.6846 18.827 24.6967 18.5167 24.6967C18.1983 24.6967 17.8392 24.6606 17.4503 24.5881C17.4109 24.5788 17.3744 24.5761 17.3378 24.5761C17.2903 24.5761 17.2863 24.5801 17.2741 24.6029L17.2064 24.7128L17.083 24.9138L16.8514 24.8615L15.8201 24.6217L15.6792 24.8522L15.7009 24.8763L15.8269 25.013L15.7714 25.1913C15.6955 25.4245 15.4488 25.6966 15.3744 25.7716L15.1168 26.0451L14.8824 25.7515L14.7063 25.5331C14.5206 25.328 14.4773 25.013 14.5816 24.6833C14.5789 24.6859 14.5748 24.6873 14.5708 24.6873L14.2795 24.8066L14.148 24.5252L14.0559 24.3254C13.8974 23.9743 13.9555 23.4609 14.3825 23.1513L15.2131 22.6876L16.0031 22.8417C16.022 22.7667 16.0505 22.4986 16.0735 22.4302C16.0586 22.4289 16.0437 22.4248 16.0288 22.4248L15.5735 22.5924L15.1345 22.2922C15.1345 22.2922 14.9624 22.1287 15.1182 21.9652L15.5437 21.3285L14.4664 19.9909L16.1223 20.6637L16.2321 20.5283L16.4556 20.2643L16.7091 20.5028C16.7809 20.5712 16.8215 20.6557 16.8418 20.7401C17.2985 20.9157 18.1156 21.4343 18.1874 22.2775L17.9313 22.3793V22.386C17.9896 22.4544 18.0383 22.4825 18.0532 22.4852L19.2349 22.6004C19.2647 22.5951 19.3026 22.5816 19.3446 22.5697C19.491 22.52 19.7119 22.449 19.9734 22.449C20.1861 22.449 20.392 22.4973 20.5899 22.5884C20.6631 22.5615 20.7525 22.5415 20.8555 22.5348L20.9124 22.5334C21.5452 22.5334 21.8596 23.0012 22.1116 23.3738C22.1537 23.4382 22.1956 23.4998 22.239 23.5601C22.4599 23.8684 22.7485 24.32 22.7607 24.3388L22.8908 24.5399L22.7309 24.7235C22.6076 24.8643 22.4233 25.0291 22.1062 25.0291C22.0412 25.0291 21.9694 25.0224 21.8921 25.0077C21.8243 24.9956 21.7634 24.9755 21.7037 24.9513C21.6942 25.013 21.6821 25.0867 21.6699 25.1498L21.4626 26.2193C22.7024 25.9178 23.4897 24.9915 23.4897 23.6673L23.4911 19.6665Z" fill="#FFDD2D" data-color-group="1"/><path d="M12.7414 19.3448H21.1007C20.6834 18.9186 20.6889 18.3785 20.7958 18.0273C20.6739 17.9697 20.5736 17.9 20.4842 17.8249C20.1576 18.0635 19.1603 18.7819 18.9001 18.9615L18.8446 18.999L15.564 18.412H15.4976C15.4191 18.412 15.3039 18.4093 15.1778 18.3946C15.1426 18.5407 15.0153 18.6411 14.8689 18.6411C14.8527 18.6411 14.8336 18.6398 14.816 18.6359C14.7306 18.621 14.6562 18.5782 14.606 18.5072C14.5545 18.4374 14.5342 18.3543 14.5491 18.2686L14.5613 18.1989C14.2225 17.963 13.9109 17.4362 14.0491 16.8813L14.0627 16.8224L14.11 16.7889C14.1169 16.7835 14.1737 16.746 14.2578 16.6977L14.0193 16.6616C13.9298 16.6454 13.8702 16.5637 13.8838 16.4766C13.8987 16.3881 13.9827 16.3251 14.0707 16.3426L14.6385 16.431L14.69 14.4527L15.5356 13.5681L16.0627 14.6658L15.5058 16.569L16.0072 16.6468C16.0952 16.6602 16.1562 16.742 16.1426 16.8318C16.1291 16.9109 16.0613 16.9658 15.9814 16.9658C15.9732 16.9658 15.9638 16.9658 15.9556 16.9644L15.5477 16.8988C15.5532 16.9109 15.5613 16.9175 15.5668 16.9309C15.6101 17.0194 15.7063 17.0837 15.7632 17.1105L18.2647 17.1494C18.3703 17.0476 18.6332 16.7929 18.9029 16.5235C18.2877 16.293 18.0641 15.7675 18.0261 15.4191C17.682 15.2743 17.4448 15.0572 17.3134 14.7744C17.1535 14.4245 17.2104 14.0747 17.2524 13.9045C16.9191 13.7839 16.5681 13.5641 16.2104 13.2129H12.4434C12.6046 13.6418 12.7414 14.1069 12.7414 14.5693V19.3448Z" fill="#FFDD2D" data-color-group="1"/><path d="M16.1849 21.402C16.124 21.3967 16.0724 21.4436 16.0684 21.5025C16.0643 21.5642 16.1104 21.6165 16.1727 21.6178C16.2323 21.6232 16.2851 21.5776 16.2905 21.5173C16.2905 21.4584 16.2472 21.4034 16.1849 21.402Z" fill="#333333" data-color-group="2"/><path d="M23.4764 28.6546L22.8571 28.4201L23.0278 27.7874L23.2162 27.0972C23.2162 27.0972 22.1186 27.6855 20.5726 28.1279C20.1335 28.2525 19.8015 28.3088 19.8015 28.3088V28.7779C19.8015 28.7779 18.975 28.92 18.1388 28.92H18.1293H18.1172H18.1009H18.0914C17.2554 28.92 16.4287 28.7779 16.4287 28.7779V28.3088C16.4287 28.3088 16.0954 28.2525 15.6578 28.1279C14.1116 27.6855 13.0154 27.0972 13.0154 27.0972L13.201 27.7874L13.3758 28.4201L12.7552 28.6546L12.0669 28.9093C12.8569 29.2859 13.9504 29.8354 14.9517 30.1062L14.716 30.7442C14.716 30.7442 15.9857 31.3164 18.1009 31.3218V31.3231H18.1076H18.1172H18.1253H18.1308V31.3218C20.2486 31.3164 21.517 30.7442 21.517 30.7442L21.2799 30.1062C22.2812 29.8354 23.3774 29.2859 24.1634 28.9093L23.4764 28.6546ZM12.8013 28.9522L13.8203 28.6171L13.5195 27.6453C13.968 27.8974 14.9748 28.2753 15.5575 28.4509L15.0656 29.7872C14.1658 29.5419 13.4165 29.2564 12.8013 28.9522ZM18.1172 30.9868C16.9342 30.9868 15.5832 30.7173 15.1862 30.5779L15.7905 28.9602C16.2919 29.1049 17.3353 29.2591 18.0928 29.2537H18.0941H18.1172H18.1375H18.1402C18.8976 29.2591 19.9383 29.1049 20.4425 28.9602L21.0454 30.5779C20.6484 30.7187 19.2988 30.9868 18.1172 30.9868ZM21.1661 29.7872L20.6755 28.4509C21.2596 28.2753 22.2636 27.8974 22.7135 27.6453L22.4141 28.6171L23.4316 28.9522C22.8151 29.2564 22.0698 29.5419 21.1661 29.7872Z" fill="#333333" data-color-group="2"/><path d="M18.116 3.40307C19.3762 3.40307 20.3843 3.81585 20.9412 4.25684C20.9412 4.25684 21.1066 3.27173 21.6716 2.40183L20.6567 2.5158L20.1255 1.39926L19.1051 1.91932L18.116 0.95166L17.1295 1.91932L16.1078 1.39926L15.578 2.5158L14.563 2.40183C15.1281 3.27173 15.2934 4.25684 15.2934 4.25684C15.8516 3.81585 16.8571 3.40307 18.116 3.40307ZM15.5319 2.90716L15.8137 2.9366L15.9357 2.68327L16.2907 1.93272L16.9493 2.26917L17.204 2.39786L17.4073 2.19944L18.1173 1.50248L18.8288 2.19944L19.032 2.39786L19.2868 2.26917L19.9412 1.93272L20.3003 2.68327L20.4195 2.9366L20.7014 2.90716L20.9697 2.87499C20.8464 3.14974 20.7556 3.40977 20.6905 3.62555C19.9805 3.23418 19.0563 3.0117 18.1146 3.0117C17.1769 3.0117 16.2541 3.23418 15.5413 3.62555C15.475 3.40977 15.3856 3.14842 15.2622 2.87499L15.5319 2.90716Z" fill="#333333" data-color-group="2"/><path d="M32.9005 16.4751C34.5306 16.4751 35.0754 14.8345 35.0984 14.7648L35.28 14.1871L34.6689 14.2059H34.6661C34.4507 14.2059 32.6526 14.159 31.3775 12.556L31.2568 12.4072C30.4235 11.359 29.6335 10.3632 28.2215 9.90887C28.2622 9.87264 28.3205 9.82707 28.4004 9.77612C29.1498 9.28824 29.5861 8.6959 29.6958 8.00828C29.8557 6.97354 29.189 6.1493 29.1593 6.11571L28.7053 5.56084L28.4221 6.21893C28.4031 6.26053 27.9261 7.31396 26.9234 7.31396H26.8489C26.7798 7.30999 26.7147 7.30726 26.6497 7.30197C26.6849 6.83145 26.5982 6.10372 25.9315 5.42148C25.1306 4.59988 24.1469 4.47656 23.632 4.47656C23.3569 4.47656 23.174 4.51006 23.155 4.5127L22.4694 4.64677L22.8922 5.19768C23.2241 5.62254 23.525 6.40659 23.1685 6.81673C23.0547 6.94675 22.8203 7.05261 22.5954 7.15856C22.1333 7.36896 21.5032 7.66116 21.5032 8.40634C21.5032 8.88885 21.8813 9.39287 22.5669 9.82169C24.5968 11.0843 25.8488 12.4018 26.3895 13.8561C27.2256 16.0931 26.1348 17.369 25.0751 18.0405L24.5995 18.3434L25.0155 18.7215C25.071 18.7697 25.5806 19.2133 26.3326 19.2777C26.4749 19.287 26.6117 19.2951 26.7391 19.2951C27.2215 19.2951 27.6321 19.22 27.9654 19.1195C27.8733 19.279 27.7608 19.4412 27.6186 19.6047C27.0129 20.299 26.2676 20.6153 25.1957 20.6314L24.7973 20.6381L24.7661 21.0334C24.7621 21.1126 24.7323 21.8457 25.4342 22.469C25.5413 22.5655 25.6714 22.6445 25.8068 22.7102C25.3312 23.1337 24.8474 23.8709 24.754 25.1348C24.6754 26.1897 24.4206 26.5797 24.4179 26.5837L23.9776 27.2485L24.773 27.2592C26.0874 27.2592 27.0942 26.9 27.792 26.1897C28.2039 25.7688 28.4397 25.2943 28.5793 24.8735C28.8083 25.0665 29.1036 25.2353 29.4885 25.3251C29.6349 25.3586 29.7947 25.3774 29.9669 25.3774C30.3381 25.3774 30.6485 25.2997 30.6836 25.2916L31.1918 25.1576L30.9668 24.6885C30.9506 24.651 30.5264 23.71 30.9831 22.3671C31.1796 21.7867 31.2799 21.2667 31.3287 20.8619C31.6484 21.0267 32.0767 21.1634 32.6309 21.1648C33.8883 21.1648 34.4426 20.236 34.4683 20.1971L34.7163 19.7709L34.2569 19.5833C32.7583 18.968 32.4263 17.3155 32.3599 16.4201C32.4954 16.4455 32.6498 16.4697 32.8246 16.4751H32.9005ZM34.0889 19.9786C34.0889 19.9786 33.6499 20.7332 32.6431 20.7332H32.6309C31.4222 20.7265 30.9343 19.9974 30.9343 19.9974C30.9343 19.9974 31.0048 20.9463 30.5685 22.2264C30.0441 23.769 30.5726 24.8721 30.5726 24.8721C30.5726 24.8721 30.2907 24.9472 29.9655 24.9472C29.8409 24.9472 29.7108 24.9351 29.5888 24.9029C28.5793 24.6657 28.3272 23.7569 28.3272 23.7569C28.3272 23.7569 28.4207 26.8276 24.8014 26.8276H24.773C24.773 26.8276 25.0914 26.3987 25.1862 25.1643C25.3583 22.8858 26.918 22.5735 26.918 22.5735C26.918 22.5735 26.086 22.4703 25.7255 22.15C25.1618 21.6446 25.2011 21.0603 25.2011 21.0603C26.4749 21.0429 27.3082 20.6139 27.9437 19.8861C28.6321 19.098 28.746 18.2496 28.746 18.2496C28.746 18.2496 28.0616 18.8635 26.7377 18.8635C26.6212 18.8635 26.4966 18.8581 26.3692 18.8461C25.7432 18.7965 25.3095 18.4025 25.3095 18.4025C26.6876 17.5285 27.6552 16.0032 26.7974 13.706C26.1104 11.8657 24.4599 10.4905 22.7986 9.45448C22.2458 9.11274 21.9382 8.73336 21.9382 8.40634C21.9382 7.63701 23.0439 7.61286 23.4979 7.09554C24.0209 6.49509 23.693 5.52064 23.239 4.93492C23.239 4.93492 23.3921 4.90407 23.6334 4.90407C24.1116 4.90407 24.9396 5.02342 25.6198 5.72038C26.5237 6.6452 26.1483 7.65173 26.1483 7.65173L26.3909 7.69863C26.5358 7.72948 26.6795 7.73485 26.8286 7.74155C26.8611 7.74155 26.8936 7.74287 26.9261 7.74287C28.2392 7.74287 28.8259 6.38517 28.8259 6.38517C28.8259 6.38517 30.2216 8.08329 28.1674 9.41296C27.8137 9.64082 27.6578 9.85122 27.6985 10.0763L27.731 10.2238L27.8773 10.2493C29.3666 10.6487 30.12 11.6646 31.0401 12.82C32.4371 14.5771 34.4141 14.6335 34.658 14.6335H34.6837C34.6837 14.6335 34.2325 16.0421 32.9032 16.0421C32.8816 16.0421 32.8626 16.0421 32.8396 16.0408C32.2284 16.0194 31.9154 15.7875 31.9154 15.7875C31.9154 15.7875 31.6755 18.9868 34.0889 19.9786Z" fill="#333333" data-color-group="2"/><path d="M30.0372 10.0857C30.6456 10.4061 30.9993 10.8349 31.3096 11.2156C31.6145 11.5869 31.9045 11.9447 32.357 12.0935C32.5182 12.1484 32.689 12.1739 32.8625 12.1739C33.5427 12.1739 34.2257 11.7624 34.4844 11.1928L34.7446 10.6218L34.1145 10.5843C34.0847 10.583 33.2744 10.5106 32.372 9.59786C32.0006 9.22386 31.5521 9.02686 31.0683 9.02686C30.4776 9.02686 30.0399 9.31906 29.9911 9.3485L29.4111 9.75194L30.0372 10.0857ZM31.0698 9.45841C31.3732 9.45841 31.7269 9.56031 32.0617 9.90205C33.1118 10.9569 34.0888 11.0159 34.0888 11.0159C33.9113 11.4046 33.3964 11.7463 32.8638 11.7463C32.7405 11.7463 32.6172 11.7275 32.4939 11.686C31.7716 11.4448 31.5128 10.3725 30.2432 9.70505C30.2432 9.70505 30.5982 9.45841 31.0698 9.45841Z" fill="#333333" data-color-group="2"/><path d="M30.3221 15.781V15.8024C29.9563 12.8832 27.8126 10.7749 25.4277 9.49221C25.2069 9.37559 25.0036 9.27643 24.8058 9.18132C25.532 9.29256 26.7015 9.30596 27.604 8.53125C27.604 8.53125 26.2231 9.53646 23.3938 8.62371C24.1771 9.12632 25.6987 9.83536 27.0877 10.984C30.5606 14.0024 28.0755 16.9471 28.0755 16.9471C29.3235 15.659 29.375 14.2785 29.0078 13.1513C29.665 14.2329 30.0851 15.5465 30.02 17.1655C29.9238 19.4856 28.6352 21.492 27.2787 23.1045C26.6269 23.8872 26.4806 24.8483 26.4806 24.8483C26.4806 24.8483 26.7435 23.9998 27.4982 23.1272C28.9522 21.4438 30.1948 19.6947 30.3574 17.175C30.5078 17.632 31.1271 18.9039 32.1094 19.3825C32.1122 19.3838 30.8777 18.648 30.3221 15.781Z" fill="#333333" data-color-group="2"/><path d="M11.8131 26.5823C11.8118 26.5782 11.5598 26.1882 11.4784 25.1334C11.3835 23.8694 10.9012 23.1323 10.4242 22.7087C10.5624 22.6444 10.6898 22.5653 10.7969 22.4675C11.4974 21.8442 11.4676 21.1111 11.4635 21.032L11.4364 20.6366L11.0353 20.6299C9.96622 20.6125 9.21953 20.2962 8.61381 19.6032C8.47292 19.4397 8.35913 19.2775 8.26695 19.1181C8.60026 19.2185 9.00815 19.2936 9.49192 19.2936C9.62201 19.2936 9.75617 19.2856 9.89839 19.2762C10.6505 19.2118 11.16 18.7695 11.2169 18.72L11.6329 18.342L11.1573 18.0391C10.0936 17.3663 9.00682 16.0903 9.84154 13.8546C10.3822 12.4004 11.6329 11.0829 13.6655 9.82032C14.3511 9.3914 14.7265 8.88747 14.7265 8.40488C14.7265 7.6597 14.0977 7.36617 13.6357 7.15709C13.4107 7.05123 13.1763 6.94528 13.0624 6.81527C12.7048 6.40654 13.0069 5.62107 13.3376 5.19621L13.763 4.64531L13.0747 4.51132C13.0543 4.50859 12.8741 4.4751 12.5977 4.4751C12.0828 4.4751 11.1018 4.59841 10.2995 5.42002C9.63148 6.10358 9.54337 6.8314 9.57729 7.30051C9.5122 7.30588 9.4472 7.30853 9.37946 7.31258H9.30631C8.30086 7.31258 7.82524 6.25907 7.8062 6.21755L7.523 5.55946L7.06499 6.11434C7.03931 6.14783 6.36993 6.97349 6.53251 8.00681C6.64091 8.69444 7.07721 9.28686 7.82656 9.77474C7.90786 9.82569 7.9648 9.87126 8.00544 9.9074C6.59486 10.3618 5.80619 11.359 4.9728 12.4071L4.85219 12.5559C3.57851 14.1589 1.77625 14.2058 1.56079 14.2058L0.947021 14.187L1.13396 14.7647C1.15566 14.8344 1.69903 16.4749 3.33047 16.4749L3.40911 16.4723C3.58117 16.4669 3.7357 16.4442 3.87393 16.4173C3.8061 17.3113 3.4741 18.9639 1.97408 19.5805L1.51607 19.7681L1.76411 20.1943C1.78847 20.2332 2.34406 21.1621 3.60419 21.1621C4.15438 21.1607 4.58254 21.024 4.90373 20.8591C4.95252 21.2639 5.05277 21.7839 5.24927 22.3643C5.70595 23.7073 5.28044 24.6482 5.26415 24.6858L5.03922 25.1549L5.54876 25.2888C5.58259 25.2969 5.89563 25.3746 6.26552 25.3746C6.439 25.3746 6.59893 25.3558 6.74257 25.3223C7.12875 25.2326 7.42683 25.0637 7.65309 24.8707C7.79132 25.2916 8.02847 25.766 8.43901 26.1869C9.13824 26.8972 10.1437 27.2564 11.4581 27.2564L12.2548 27.2458L11.8131 26.5823ZM11.4283 26.8275C7.80894 26.8275 7.90113 23.7569 7.90113 23.7569C7.90113 23.7569 7.64901 24.6657 6.63958 24.9029C6.51897 24.935 6.39021 24.9471 6.26419 24.9471C5.93902 24.9471 5.65848 24.872 5.65848 24.872C5.65848 24.872 6.18423 23.769 5.65981 22.2262C5.22625 20.9463 5.29665 19.9973 5.29665 19.9973C5.29665 19.9973 4.81022 20.7264 3.60021 20.7331H3.58799C2.58121 20.7331 2.14215 19.9785 2.14215 19.9785C4.55412 18.988 4.31697 15.79 4.31697 15.79C4.31697 15.79 4.00393 16.0205 3.39148 16.0434C3.36979 16.0447 3.34951 16.0447 3.32781 16.0447C1.9971 16.0447 1.54724 14.636 1.54724 14.636H1.57434C1.81964 14.636 3.79396 14.5797 5.191 12.8226C6.11108 11.6672 6.86583 10.6527 8.35231 10.2519L8.50135 10.2264L8.53394 10.0789C8.57459 9.85381 8.42006 9.64341 8.06637 9.41555C6.01217 8.08456 7.40788 6.38776 7.40788 6.38776C7.40788 6.38776 7.9919 7.74414 9.30764 7.74414C9.34014 7.74414 9.36998 7.74282 9.40381 7.74282C9.55152 7.7348 9.6979 7.72942 9.84154 7.69857L10.0841 7.65168C10.0841 7.65168 9.7087 6.64506 10.6139 5.72024C11.2941 5.02195 12.1221 4.90401 12.599 4.90401C12.8416 4.90401 12.992 4.93486 12.992 4.93486C12.5394 5.52191 12.2115 6.49495 12.7345 7.09539C13.1871 7.61148 14.2915 7.63696 14.2915 8.40629C14.2915 8.73199 13.9839 9.1126 13.431 9.45442C11.7684 10.4905 10.1179 11.8656 9.43232 13.7058C8.57591 16.0032 9.54204 17.5271 10.9229 18.4023C10.9229 18.4023 10.4892 18.7964 9.86181 18.846C9.73447 18.858 9.61121 18.8634 9.49192 18.8634C8.16936 18.8634 7.4851 18.2496 7.4851 18.2496C7.4851 18.2496 7.59889 19.098 8.28324 19.8861C8.92278 20.6139 9.75617 21.0427 11.0299 21.0602C11.0299 21.0602 11.0706 21.6446 10.5068 22.1498C10.145 22.4688 9.31304 22.5734 9.31304 22.5734C9.31304 22.5734 10.8741 22.8857 11.0448 25.1642C11.1383 26.3987 11.454 26.8275 11.454 26.8275H11.4283Z" fill="#333333" data-color-group="2"/><path d="M3.36776 12.1755C3.54248 12.1755 3.7133 12.15 3.87447 12.0951C4.32982 11.9463 4.61842 11.5885 4.92332 11.2172C5.23494 10.8365 5.58597 10.4077 6.19434 10.0873L6.82042 9.75487L6.23906 9.35151C6.19027 9.32066 5.75396 9.02979 5.16454 9.02979C4.67944 9.02979 4.22958 9.22547 3.8596 9.60079C2.95714 10.5122 2.14819 10.5859 2.11835 10.5872L1.48828 10.6235L1.74713 11.1958C2.0073 11.7627 2.68882 12.1755 3.36776 12.1755ZM4.16989 9.90366C4.50596 9.56192 4.85964 9.46002 5.16454 9.46002C5.63335 9.46002 5.98836 9.70665 5.98836 9.70665C4.72008 10.3755 4.45991 11.4464 3.73491 11.6876C3.61572 11.7292 3.49103 11.7479 3.36776 11.7479C2.8352 11.7479 2.32025 11.4075 2.14412 11.0175C2.14412 11.0161 3.11972 10.9572 4.16989 9.90366Z" fill="#333333" data-color-group="2"/><path d="M6.21122 17.1667C6.14348 15.5476 6.56358 14.2341 7.22208 13.1525C6.85493 14.2797 6.90505 15.6603 8.15438 16.9482C8.15438 16.9482 5.66918 14.0036 9.14353 10.9852C10.5338 9.83658 12.0542 9.12754 12.8361 8.62493C10.0081 9.53768 8.62726 8.53247 8.62726 8.53247C9.52972 9.30709 10.6992 9.29369 11.4255 9.18113C11.229 9.27633 11.023 9.37549 10.8048 9.49211C8.4173 10.7748 6.2749 12.8831 5.90775 15.8023V15.7795C5.35348 18.6464 4.12036 19.3823 4.12036 19.3823C5.10146 18.9037 5.71939 17.6331 5.86976 17.1748C6.03376 19.6946 7.27627 21.4436 8.73025 23.1271C9.485 23.9997 9.75066 24.8481 9.75066 24.8481C9.75066 24.8481 9.60296 23.887 8.94845 23.1043C7.59471 21.4946 6.30607 19.4868 6.21122 17.1667Z" fill="#333333" data-color-group="2"/><path d="M17.2986 11.2603V11.8393C17.5005 11.5966 17.8907 11.6462 17.8907 11.6462V12.4812C17.8907 12.4812 17.8772 12.8914 17.7295 13.0697H18.1523H18.5737C18.4287 12.8927 18.4138 12.4812 18.4138 12.4812V11.6462C18.4138 11.6462 18.804 11.5966 19.0046 11.8393V11.2603H18.1523H17.2986Z" fill="#333333" data-color-group="2"/><path d="M16.9355 7.82625C17.2051 8.03798 17.361 8.07279 17.3664 8.07685L17.4721 8.12506V7.57962L16.4802 7.16675C16.4802 7.16816 16.4897 7.4831 16.9355 7.82625Z" fill="#333333" data-color-group="2"/><path d="M19.2947 7.82625C19.7433 7.4831 19.7514 7.16675 19.7514 7.16675L18.7595 7.57962V8.12506L18.8638 8.07685C18.8707 8.07279 19.0251 8.03798 19.2947 7.82625Z" fill="#333333" data-color-group="2"/><path d="M21.0819 5.60526C21.0819 4.77828 19.6739 4.03442 18.1197 4.03442H18.1184H18.1143H18.1102C16.556 4.03442 15.1481 4.77828 15.1481 5.60526L15.1793 5.80905L15.7998 9.33275L15.1766 9.69053L13.564 10.622H13.5695C13.5695 10.622 13.2063 10.8057 13.0383 10.9196C12.4245 11.3418 12.2944 11.957 12.6508 12.2117C12.7389 11.7105 13.1399 11.185 13.8906 11.185C14.4313 11.185 14.8432 11.4611 15.1766 11.8753C15.262 11.9798 15.3433 12.0911 15.4191 12.2117C15.5126 12.3632 15.6061 12.4958 15.6996 12.6245H11.5464C11.8513 13.2317 12.1412 13.875 12.1412 14.5733V23.6661C12.1412 25.8669 13.8527 26.9176 15.7037 26.9176C17.1346 26.9176 17.3271 26.8533 18.1171 27.6306C18.903 26.852 19.0953 26.9176 20.5276 26.9176C22.38 26.9176 24.0887 25.8669 24.0887 23.6661V14.5733C24.0887 13.875 24.3787 13.2317 24.685 12.6245H20.5303C20.6225 12.4972 20.716 12.3632 20.8095 12.2117C20.8867 12.0911 20.9666 11.9798 21.0507 11.8753C21.3868 11.4598 21.7973 11.185 22.338 11.185C23.0887 11.185 23.4884 11.7091 23.5779 12.2117C23.9342 11.957 23.8055 11.3418 23.1876 10.9196C23.0223 10.8057 22.6591 10.622 22.6591 10.622H22.6645L21.052 9.69053L20.4314 9.33275L21.052 5.80905L21.0819 5.60526ZM15.7592 6.0154L17.9408 6.74727V10.1369L16.3352 9.29916L15.7592 6.0154ZM16.2105 13.2156C16.5682 13.5681 16.9192 13.7866 17.2525 13.9072C17.2091 14.0774 17.1522 14.4286 17.3135 14.7785C17.4449 15.0599 17.6834 15.277 18.0262 15.4217C18.0642 15.7703 18.2864 16.2943 18.903 16.5262C18.6333 16.7956 18.3704 17.0489 18.2633 17.1521L15.7633 17.1132C15.7064 17.0851 15.6102 17.0221 15.5668 16.9323C15.5614 16.9202 15.5532 16.9135 15.5492 16.9001L15.957 16.9658C15.9666 16.9671 15.9746 16.9671 15.9828 16.9671C16.0614 16.9671 16.1305 16.9135 16.1441 16.8331C16.1576 16.7433 16.0966 16.6616 16.0086 16.6482L15.5072 16.5704L16.0641 14.6685L15.537 13.5708L14.6914 14.4554L14.64 16.4337L14.0722 16.3452C13.9841 16.3278 13.9001 16.3921 13.8852 16.4793C13.8717 16.5664 13.9313 16.6482 14.0207 16.6642L14.2592 16.7005C14.1738 16.7487 14.1183 16.7862 14.1115 16.7916L14.0627 16.8251L14.0491 16.8841C13.911 17.4389 14.2239 17.9657 14.5614 18.2016L14.5492 18.2713C14.5356 18.3571 14.5546 18.4402 14.606 18.5098C14.6548 18.5809 14.7307 18.6238 14.8148 18.6385C14.8324 18.6412 14.8513 18.6426 14.8676 18.6426C15.0139 18.6426 15.1414 18.542 15.1779 18.3959C15.3039 18.4107 15.4191 18.4133 15.4977 18.4133H15.5641L18.8447 18.999L18.9002 18.9629C19.1617 18.7819 20.1577 18.0635 20.4843 17.8262C20.5737 17.9027 20.674 17.9724 20.7959 18.03C20.6903 18.3812 20.6835 18.9213 21.1021 19.3475H12.7415V14.5747C12.7415 14.1123 12.6047 13.6472 12.4434 13.2183H16.2105V13.2156ZM20.2648 17.5824C19.9328 17.8236 19.0791 18.4402 18.7701 18.6546L15.789 18.1252C15.7958 18.0984 15.8026 18.0729 15.8093 18.0461C15.8486 17.8933 15.888 17.6842 15.8907 17.4389L18.3962 17.4791L18.4436 17.4309C18.4815 17.3934 19.2756 16.6347 19.6807 16.1978C19.7769 16.3171 19.8975 16.431 20.0547 16.5316C20.0005 16.821 20.0235 17.2338 20.2648 17.5824ZM15.2741 17.0717C15.3446 17.2178 15.4719 17.3156 15.56 17.3705C15.5573 17.5073 15.5437 17.7204 15.5072 17.908C15.499 17.9496 15.4882 17.9884 15.476 18.0273C15.4693 18.0515 15.4625 18.0716 15.457 18.0876C15.3256 18.0876 15.0668 18.0716 14.8554 17.9951C14.621 17.9094 14.2714 17.4845 14.3527 17.0167C14.4543 16.9551 14.6887 16.8251 14.9083 16.8251C15.0777 16.8237 15.1928 16.9028 15.2741 17.0717ZM14.9638 16.4833L15.0139 14.5841L15.4448 14.1323L15.7159 14.6926L15.182 16.5154L14.9638 16.4833ZM20.2377 26.3293C20.0751 26.3293 19.9246 26.3319 19.7891 26.3373L20.1442 25.2449C20.1997 25.0935 19.9192 24.8991 19.804 24.7289C19.9788 24.8375 20.4314 25.0747 20.6496 25.1699C20.6266 25.2047 20.2377 26.3293 20.2377 26.3293ZM21.3515 25.0881L21.1198 26.2837C20.9721 26.3038 20.8149 26.3145 20.6537 26.3212L20.8976 25.1712C20.9707 24.8294 20.0425 24.7235 19.5845 24.052C19.361 24.3013 18.9395 24.3751 18.5168 24.3751C18.1306 24.3751 17.7444 24.3134 17.5099 24.2678C17.4503 24.2585 17.3934 24.2518 17.3379 24.2518C17.2024 24.2518 17.079 24.2933 16.9936 24.4354L16.9259 24.5479L15.6617 24.2531L15.3473 24.7678C15.3026 24.8509 15.2999 24.9219 15.3717 24.9997L15.457 25.0922C15.3988 25.2744 15.1359 25.5492 15.1359 25.5492L14.9476 25.3173C14.7985 25.1524 14.8229 24.8522 14.9787 24.5734L15.4801 23.7358L16.5506 23.8885L16.3839 23.5132C16.1603 23.0173 16.5004 22.386 16.5371 22.0228C16.5248 22.1327 16.4232 22.1568 16.304 22.1568C16.1956 22.1568 16.075 22.1367 15.995 22.1367C15.9638 22.1367 15.9367 22.1394 15.9219 22.1501L15.6319 22.3244L15.4029 22.1247C15.3758 22.0858 15.3663 21.996 15.434 21.929L15.9638 21.3419L15.3378 20.6195L16.2145 21.0551L16.4814 20.7348C16.5547 20.8058 16.5235 20.9921 16.5235 20.9921C16.7972 20.9988 17.5641 21.4183 17.6048 22.3968C17.6075 22.4262 17.6075 22.4598 17.6075 22.492C17.6075 22.492 17.6143 22.5039 17.6279 22.5241C17.6821 22.5978 17.8311 22.7868 18.0208 22.8043L19.2322 22.9222H19.2376C19.3705 22.9222 19.6347 22.768 19.9734 22.768C20.1577 22.768 20.3637 22.8149 20.5832 22.9516C20.5832 22.9516 20.6929 22.8659 20.8718 22.8565C20.8854 22.8551 20.9002 22.8551 20.9139 22.8551C21.4572 22.8551 21.6822 23.3404 21.9735 23.7438C22.193 24.0507 22.4857 24.5064 22.4857 24.5064C22.3772 24.6337 22.277 24.7034 22.109 24.7034C22.0629 24.7034 22.0101 24.6994 21.9531 24.6887C21.3705 24.5828 21.2865 23.398 20.9545 23.3041C20.9369 23.2988 20.9179 23.2974 20.9017 23.2974C20.7946 23.2974 20.7471 23.3913 20.7471 23.3913C20.8989 23.7947 20.8109 23.9583 20.9735 24.2691C21.0954 24.4997 21.3122 24.69 21.4016 24.7799C21.4016 24.7825 21.3773 24.9568 21.3515 25.0881ZM14.8459 23.9568L14.9015 24.095C14.8649 24.2155 14.4449 24.3871 14.4449 24.3871L14.354 24.1914C14.2578 23.9823 14.2781 23.6298 14.5709 23.414L15.2511 23.0039L15.972 23.1553C15.9584 23.3819 16.0953 23.5508 16.0953 23.5508L15.3392 23.4073L14.8866 23.717C14.8107 23.7693 14.8053 23.8671 14.8459 23.9568ZM21.4653 26.218L21.6727 25.1484C21.6835 25.0855 21.697 25.0117 21.7065 24.9501C21.7648 24.9742 21.8271 24.9943 21.8949 25.0064C21.9721 25.0211 22.0439 25.0278 22.109 25.0278C22.426 25.0278 22.6103 24.863 22.7337 24.7222L22.8935 24.5386L22.7635 24.3375C22.7513 24.3174 22.464 23.8671 22.2417 23.5588C22.1984 23.4985 22.1564 23.4382 22.1144 23.3725C21.8624 22.9999 21.5466 22.5321 20.9139 22.5321L20.8569 22.5335C20.7526 22.5402 20.6632 22.5603 20.5914 22.5871C20.3921 22.4946 20.1875 22.4477 19.9748 22.4477C19.7132 22.4477 19.4924 22.5188 19.346 22.5683C19.304 22.5804 19.266 22.5938 19.2363 22.5991L18.0533 22.4838C18.0384 22.4812 17.9896 22.4531 17.9314 22.3834V22.378L18.1875 22.2761C18.1156 21.4331 17.2972 20.9143 16.8405 20.7387C16.8203 20.6544 16.7796 20.5699 16.7078 20.5015L16.453 20.2629L16.2294 20.5283L16.1197 20.6637L14.4638 19.9909L15.5411 21.3285L15.1156 21.9652C14.9597 22.1287 15.1319 22.2922 15.1319 22.2922L15.5708 22.5911L16.0262 22.4236C16.0424 22.4236 16.0559 22.4276 16.0709 22.4289C16.0492 22.4972 16.0208 22.7654 16.0017 22.8404L15.2118 22.6862L14.3811 23.15C13.9543 23.4596 13.896 23.973 14.0546 24.3241L14.1467 24.5238L14.2781 24.8053L14.5681 24.686C14.5722 24.6847 14.5763 24.6833 14.5789 24.6807C14.4746 25.0104 14.5167 25.324 14.7036 25.5304L14.8798 25.7502L15.1143 26.0438L15.3717 25.7703C15.4476 25.6952 15.6929 25.4232 15.7687 25.19L15.8243 25.0117L15.6983 24.875L15.6779 24.8509L15.8189 24.6203L16.85 24.8602L17.0818 24.9125L17.205 24.7115L17.2728 24.6015C17.285 24.5788 17.2891 24.5747 17.3365 24.5747C17.3731 24.5747 17.4097 24.5788 17.449 24.5868C17.8378 24.6592 18.1969 24.6954 18.5154 24.6954C18.8243 24.6954 19.0086 24.6833 19.2295 24.611C19.2295 24.611 19.7837 25.2328 19.8027 25.257L19.464 26.2917L19.449 26.3547C18.8067 26.4056 18.4937 26.5451 18.1156 26.919C17.5669 26.3801 17.1779 26.3239 15.7023 26.3239C13.9367 26.3239 12.7402 25.2999 12.7402 23.6647V19.6665H23.4884L23.4912 23.6647C23.4925 24.9916 22.7052 25.9164 21.4653 26.218ZM23.7892 13.2156C23.6252 13.6445 23.4884 14.1096 23.4884 14.572L23.4897 17.5556C22.8597 17.451 22.7851 16.7795 22.7825 16.75L22.7702 16.6133L22.6348 16.6012C22.361 16.5757 22.1794 16.4605 22.0263 16.3131C21.7173 16.0075 21.716 15.5116 21.7173 15.5075C21.7133 15.533 21.3773 15.9981 21.7675 16.5061C21.9315 16.7206 22.1686 16.8519 22.4762 16.9042C22.5481 17.2768 22.8285 17.8022 23.4897 17.8826V19.3435H21.6306C20.7729 18.8717 21.1361 18.0407 21.1537 18.0059L21.2268 17.8478L21.0629 17.7861C20.1347 17.4456 20.3895 16.5288 20.403 16.49L20.4409 16.356L20.3149 16.297C19.5479 15.9458 19.6523 14.9982 19.6618 14.9593C19.426 15.1483 19.3406 15.5344 19.5032 15.9124C19.4152 16.0115 19.2972 16.1321 19.1685 16.2634C18.3745 16.0638 18.35 15.3413 18.35 15.3079L18.3487 15.1966L18.2444 15.1564C17.9341 15.0424 17.7213 14.8722 17.617 14.6431C17.4991 14.3897 17.5411 14.1243 17.5736 13.997C17.6644 14.0171 17.7552 14.0319 17.8419 14.0386C17.9314 14.0479 18.0235 14.0533 18.1156 14.0533H18.121H18.1279C18.22 14.0533 18.3108 14.0479 18.4002 14.0386C18.8948 13.9903 19.449 13.7799 20.0263 13.2142H23.7892V13.2156ZM20.8922 10.1999L21.6266 10.622H21.6375L21.8217 10.728C21.407 10.8419 21.09 11.047 20.8244 11.3164C20.8149 11.3244 20.8054 11.3351 20.7959 11.3445C20.735 11.4088 20.674 11.4786 20.617 11.5496C20.6062 11.563 20.5954 11.5777 20.5832 11.5924C20.5263 11.6649 20.4734 11.7386 20.4219 11.8163C20.4138 11.8297 20.4043 11.8431 20.3949 11.8552C20.3338 11.945 20.2756 12.0415 20.2173 12.1407C19.6943 13.0319 18.8596 13.5641 18.1171 13.5654C17.3758 13.5641 16.541 13.0319 16.018 12.1407C15.9611 12.0442 15.9042 11.9503 15.8432 11.8592C15.831 11.8418 15.8202 11.8244 15.8093 11.8096C15.7579 11.7359 15.7064 11.6635 15.6536 11.5952C15.64 11.5764 15.6278 11.5617 15.6142 11.5455C15.5573 11.4772 15.499 11.4088 15.4408 11.3459C15.4286 11.3365 15.4205 11.3244 15.4083 11.3137C15.1414 11.0443 14.8256 10.8406 14.4096 10.728L14.5966 10.622H14.6047L15.3392 10.1999L16.0939 9.77233L18.1102 10.858L18.1143 10.854L18.1197 10.858L20.136 9.77233L20.8922 10.1999ZM19.8975 9.30057L18.2904 10.1382V6.74727L20.4707 6.0154L19.8975 9.30057ZM18.1156 6.37459L15.7254 5.44043C15.9286 4.96462 16.8663 4.55986 18.1156 4.55854C19.3664 4.55986 20.3041 4.96462 20.506 5.44043L18.1156 6.37459Z" fill="#333333" data-color-group="2"/><path d="M47.453 14.8061V9.43924H50.6356V7.4863H41.9531V9.43924H45.1356V14.8061H47.453ZM53.8031 11.7459V7.4863H51.563V14.8061H53.5405L57.4027 10.5464V14.8061H59.6429V7.4863H57.6654L53.8031 11.7459ZM67.1791 12.0842V14.8061H69.4193V7.4863H67.1791V10.162H63.5795V7.4863H61.3394V14.8061H63.5795V12.0842H67.1791ZM75.6578 14.8061C76.1677 14.8061 76.6311 14.76 77.0639 14.6369C78.2222 14.314 78.9793 13.376 78.9793 12.0996C78.9793 10.8847 78.3302 10.039 77.2959 9.65458C76.801 9.47001 76.214 9.45467 75.6578 9.45467H73.3559V7.4863H71.1158V14.8061H75.6578ZM75.2716 11.1769C75.5806 11.1769 75.8741 11.1769 76.1368 11.2692C76.5076 11.3922 76.7238 11.6998 76.7238 12.0689C76.7238 12.4533 76.5076 12.7762 76.1522 12.93C75.9051 13.0377 75.6578 13.0377 75.2716 13.0377H73.3559V11.1769H75.2716ZM82.9962 12.0381L85.6687 14.8061H88.6504L84.9275 10.9925L88.5113 7.4863H85.6997L82.9962 10.2389H82.378V7.4863H80.1376V14.8061H82.378V12.0381H82.9962ZM93.2596 7.28638C90.247 7.28638 88.4396 8.97789 88.4396 11.1616C88.4396 13.3452 90.247 15.0367 93.2596 15.0367C96.2572 15.0367 98.0646 13.3452 98.0646 11.1616C98.0646 8.97789 96.2572 7.28638 93.2596 7.28638ZM93.2596 13.2529C91.7613 13.2529 90.8031 12.361 90.8031 11.1616C90.8031 9.96212 91.7613 9.0856 93.2596 9.0856C94.7429 9.0856 95.7161 9.96212 95.7161 11.1616C95.7161 12.361 94.7429 13.2529 93.2596 13.2529ZM105.524 7.07104H103.285V7.80926C100.473 7.8707 98.789 9.05484 98.789 11.1462C98.789 13.2376 100.473 14.3294 103.285 14.3909V15.129H105.524V14.3909C108.352 14.3294 110.036 13.2376 110.036 11.1462C110.036 9.05484 108.352 7.8707 105.524 7.80926V7.07104ZM103.285 12.8223C101.74 12.7608 101.06 12.1303 101.06 11.1462C101.06 10.162 101.74 9.45467 103.285 9.39314V12.8223ZM105.524 9.39314C107.085 9.45467 107.75 10.162 107.75 11.1462C107.75 12.1303 107.085 12.7608 105.524 12.8223V9.39314ZM117.489 7.07104H115.249V7.80926C112.437 7.8707 110.753 9.05484 110.753 11.1462C110.753 13.2376 112.437 14.3294 115.249 14.3909V15.129H117.489V14.3909C120.316 14.3294 122 13.2376 122 11.1462C122 9.05484 120.316 7.8707 117.489 7.80926V7.07104ZM115.249 12.8223C113.704 12.7608 113.024 12.1303 113.024 11.1462C113.024 10.162 113.704 9.45467 115.249 9.39314V12.8223ZM117.489 9.39314C119.049 9.45467 119.714 10.162 119.714 11.1462C119.714 12.1303 119.049 12.7608 117.489 12.8223V9.39314Z" fill="#333333" data-color-group="2"/><path d="M43.9177 23.6268V22.9271H47.8055V21.7246H42.3252V26.9282H46.0373C46.5535 26.9282 46.9379 26.8845 47.2234 26.7751C47.8274 26.5456 48.2338 25.988 48.2338 25.2556C48.2338 24.5122 47.8494 23.9984 47.2454 23.7689C46.9599 23.6596 46.5864 23.6268 46.1801 23.6268H43.9177ZM43.9177 25.6163V24.7856H46.0922C46.2679 24.7856 46.4108 24.7965 46.5206 24.8511C46.6523 24.9167 46.7182 25.037 46.7182 25.1901C46.7182 25.3431 46.6413 25.507 46.4547 25.5726C46.3667 25.6054 46.246 25.6163 46.0922 25.6163H43.9177ZM50.7389 24.7528V21.7246H49.1464V26.9282H50.5522L53.2978 23.9001V26.9282H54.8903V21.7246H53.4845L50.7389 24.7528ZM58.7102 21.5388C59.413 21.5388 59.9183 21.6263 60.2587 21.7246C61.0385 21.9433 61.4558 22.4242 61.4558 23.0037C61.4558 23.6049 61.0934 23.9984 60.5442 24.228C61.2142 24.392 61.5986 24.8621 61.5986 25.4524C61.5986 26.1301 61.1593 26.6658 60.4125 26.8845C60.039 26.9938 59.5778 27.0812 58.6662 27.0812C57.9304 27.0812 57.2934 27.0156 56.8651 26.8626C56.2281 26.633 55.7778 26.1738 55.6899 25.4196H57.4471C57.502 25.6382 57.6668 25.7913 57.8316 25.8678C57.9963 25.9443 58.2709 26.0099 58.6772 26.0099C59.2703 26.0099 59.435 25.9334 59.5887 25.8787C59.8304 25.7913 59.9292 25.6054 59.9292 25.3977C59.9292 25.1791 59.7975 25.037 59.6217 24.9823C59.4789 24.9277 59.3252 24.9167 58.8639 24.9167H57.4691V23.7361H58.7651C59.0835 23.7361 59.2703 23.7361 59.468 23.6815C59.6986 23.6049 59.7975 23.4518 59.7975 23.2442C59.7975 23.0693 59.6985 22.8725 59.413 22.7632C59.2043 22.6757 58.9408 22.6429 58.6113 22.6429C58.3148 22.6429 58.0951 22.6757 57.9084 22.7522C57.6998 22.8287 57.5569 22.949 57.4471 23.1895H55.7339C55.8217 22.5118 56.272 22.0089 56.9639 21.7793C57.513 21.5935 58.0841 21.5388 58.7102 21.5388ZM66.715 24.9932V26.9282H68.3075V21.7246H66.715V23.6268H64.156V21.7246H62.5636V26.9282H64.156V24.9932H66.715ZM74.8291 21.7246H69.5135V26.9282H74.8291V25.7366H71.106V24.8184H74.6094V23.7798H71.106V22.9162H74.8291V21.7246ZM82.0041 23.7908C81.7739 22.5008 80.6209 21.5825 78.7976 21.5825C76.7108 21.5607 75.4258 22.7632 75.4258 24.3373C75.4258 25.8897 76.7108 27.0921 78.7976 27.0921C80.6422 27.0812 81.7517 26.1738 81.9935 24.873H80.3127C80.148 25.4633 79.5662 25.8678 78.7533 25.8678C77.7323 25.8678 77.1062 25.1901 77.1062 24.3373C77.1062 23.4846 77.7323 22.8178 78.7533 22.8178C79.5662 22.8178 80.1374 23.2114 80.3021 23.7908H82.0041Z" fill="#333333" data-color-group="2"/></svg>