<svg width="137.232" height="35" viewBox="0 0 137.232 35" xmlns="http://www.w3.org/2000/svg"><path d="M6.15 5.405l.883-2.2H9.65L5.33 13.61H2.538l1.012-2.328L.08 3.205h2.907L3.66 4.78q.674 1.59.955 2.681.281 1.092.346 1.654h.176q.016-.289.088-.69.073-.402.21-.891.136-.49.312-1.028.177-.538.402-1.1zm10.148 5.99q0 .61-.273 1.067-.273.458-.771.763t-1.196.457q-.699.153-1.566.153-.803 0-1.469-.185t-1.132-.546q-.466-.361-.674-.907-.21-.546-.065-1.285h2.056q-.097.595.297.892.393.297 1.003.297.514 0 .875-.233.362-.233.362-.715 0-.497-.354-.642-.353-.144-.835-.144h-.963V8.68h.947q.466 0 .787-.201.321-.2.321-.667 0-.465-.329-.682-.33-.217-.795-.217-.257 0-.505.057-.25.056-.426.184-.177.129-.273.33-.096.2-.048.505H9.28q-.145-.722.048-1.26t.65-.891q.458-.354 1.148-.53.69-.177 1.542-.177.706 0 1.34.128.635.129 1.116.41.482.28.771.706.29.426.29 1.004 0 .417-.137.739-.137.32-.37.562-.232.24-.53.393-.296.152-.634.217v.208q.82.145 1.3.643.483.497.483 1.252zm3.757 2.215h-2.633V5.373h2.633V8.44h2.36V5.373h2.634v8.237h-2.634v-3.083h-2.36v3.083zm9.795-1.493q.353 0 .602-.16.249-.161.41-.426.16-.265.224-.61.064-.346.064-.715v-.594q-.722.032-1.196.144-.474.113-.755.297-.28.185-.401.434-.12.249-.12.538 0 .482.329.787.329.305.843.305zm-1.157 1.718q-.594 0-1.043-.2-.45-.202-.763-.523-.313-.32-.474-.738-.16-.418-.16-.835 0-1.028.466-1.63.465-.602 1.188-.923.722-.321 1.59-.434.866-.112 1.653-.144V7.83q0-.546-.289-.843-.289-.297-.899-.297-.37 0-.618.112-.25.112-.386.297t-.168.425q-.032.241.016.498h-2.184q-.08-.562.064-1.084.145-.521.562-.923.418-.401 1.148-.642.731-.241 1.823-.241 1.076 0 1.774.209.699.208 1.092.594.393.385.546.915.152.53.152 1.172v5.588H31.23v-.096q0-.225.08-.522.081-.297.177-.602l-.208-.113q-.16.321-.378.602-.216.281-.53.49-.313.209-.722.337-.41.129-.956.129zm9.891-.225H35.23V5.373h2.537V7.83q0 .45-.04 1.011-.04.562-.089 1.116-.048.554-.112 1.02-.065.465-.113.722l.21.032q.063-.24.2-.69.136-.45.32-.98.186-.53.402-1.1.217-.57.442-1.067l1.14-2.521h3.34v8.237h-2.537v-2.489q0-.433.04-.995t.096-1.108q.056-.546.12-1.012.065-.465.113-.722l-.225-.032q-.064.24-.2.698-.137.458-.322.996-.184.537-.401 1.1-.217.561-.425 1.043l-1.14 2.521zM36.69 4.361v-1.75q1.268.24 2.553.24v.001q1.268 0 2.569-.24v1.75q-.658.128-1.293.192-.634.064-1.276.064t-1.277-.064q-.634-.064-1.276-.193zm12.444 9.249H46.5V7.46h-1.99V5.373h6.615V7.46h-1.991v6.15zm8.092-2.746h2.28q.08.707-.144 1.253-.225.546-.707.931-.481.385-1.212.586-.73.2-1.646.2-1.075 0-1.854-.312-.779-.313-1.277-.875-.497-.562-.738-1.333-.241-.77-.241-1.702 0-.915.233-1.726.232-.811.738-1.43.506-.617 1.293-.97.787-.354 1.895-.354 1.06 0 1.782.297t1.164.803q.442.506.626 1.164.185.658.185 1.38 0 .226-.016.611t-.064.658h-5.107q0 .45.08.843.081.394.258.69.176.298.457.474.281.177.699.177.642 0 1.011-.305.37-.305.305-1.06zM55.91 6.69q-.739 0-1.108.513-.37.514-.386 1.397h2.762v-.08q0-.915-.273-1.373-.273-.457-.995-.457zm9.537 1.653h.225q.097-.546.313-.98.217-.433.562-.738.346-.305.835-.473.49-.169 1.164-.169.723 0 1.293.281t.955.77q.386.49.594 1.173.21.682.21 1.485 0 .851-.258 1.606-.257.754-.754 1.316-.498.562-1.237.892-.738.329-1.702.329-1.108 0-1.894-.37-.787-.369-1.277-1.051-.49-.683-.714-1.67-.225-.988-.225-2.224 0-1.076.16-2.023.16-.948.594-1.694.434-.747 1.18-1.277.747-.53 1.92-.786.642-.145 1.083-.241.442-.097.795-.193.353-.096.65-.209.297-.112.635-.257l.144 2.441q-.385.145-.763.24-.377.097-.754.17l-.763.144q-.385.072-.819.185-.642.16-1.06.425-.417.265-.658.65-.24.386-.337.892-.097.505-.097 1.148v.208zm2.104 3.388q.626 0 .947-.433.321-.434.321-1.397 0-.947-.313-1.365-.313-.417-.955-.417-.61 0-.931.45-.322.449-.322 1.412 0 .948.306 1.349.305.401.947.401zm9.313 2.12q-2.071 0-3.147-1.116-1.076-1.116-1.076-3.236 0-2.119 1.076-3.243 1.076-1.124 3.147-1.124 2.04 0 3.115 1.124 1.076 1.124 1.076 3.243 0 2.12-1.076 3.236t-3.115 1.116zm0-1.702q.353 0 .618-.129.265-.128.442-.425.176-.297.265-.811.088-.514.088-1.285 0-.754-.088-1.26-.089-.506-.265-.819-.177-.313-.442-.45-.265-.136-.618-.136-.37 0-.642.137-.273.136-.45.45-.177.312-.265.818-.088.506-.088 1.26 0 .771.088 1.285.088.514.265.81.177.298.45.426.273.129.642.129zm4.833-.578q.466.08.755-.008.289-.089.441-.522.153-.434.209-1.293.056-.859.056-2.352V5.373h6.583v8.237h-2.633V7.22H85.68v.593q0 1.911-.128 3.116-.129 1.204-.546 1.854-.418.65-1.205.819-.786.169-2.103-.008V11.57zM93.98 5.373v2.151h.916q1.06 0 1.758.241t1.124.65q.425.41.594.964.169.554.169 1.18 0 .482-.177 1.02t-.594.987q-.418.45-1.116.747-.699.297-1.758.297h-3.549V5.373h2.633zm0 6.246h.739q.514 0 .819-.24.305-.242.305-.804t-.305-.81q-.305-.25-.819-.25h-.739v2.104zm16.62-6.246v8.237H99.583V5.373h2.634v6.15h1.557v-6.15h2.633v6.15h1.558v-6.15h2.633zm6.823 5.491h2.28q.08.707-.144 1.253-.225.546-.707.931-.481.385-1.212.586-.73.2-1.646.2-1.076 0-1.854-.312-.78-.313-1.277-.875-.498-.562-.738-1.333-.241-.77-.241-1.702 0-.915.233-1.726.232-.811.738-1.43.506-.617 1.293-.97.787-.354 1.894-.354 1.06 0 1.783.297.722.297 1.164.803.441.506.626 1.164.185.658.185 1.38 0 .226-.016.611t-.065.658h-5.106q0 .45.08.843.08.394.258.69.176.298.457.474.281.177.699.177.642 0 1.011-.305.37-.305.305-1.06zm-1.316-4.174q-.739 0-1.108.513-.37.514-.386 1.397h2.762v-.08q0-.915-.273-1.373-.273-.457-.995-.457zM4.159 31.27H.803v-8.237H3.34v2.457q0 .45-.04 1.011-.04.562-.089 1.116-.048.554-.112 1.02-.064.465-.112.722l.208.032q.065-.24.201-.69.136-.45.321-.98t.402-1.1q.216-.57.441-1.067l1.14-2.521h3.34v8.237H6.503v-2.489q0-.433.04-.995t.096-1.108q.057-.546.12-1.012.065-.465.113-.722l-.224-.032q-.065.24-.201.698-.137.458-.321.996-.185.537-.402 1.1-.217.561-.425 1.043l-1.14 2.521zm13.279.24q-2.072 0-3.147-1.115-1.076-1.116-1.076-3.236 0-2.119 1.076-3.243 1.075-1.124 3.147-1.124 2.039 0 3.115 1.124 1.075 1.124 1.075 3.243 0 2.12-1.075 3.236-1.076 1.116-3.115 1.116zm0-1.701q.353 0 .618-.129.265-.128.441-.425.177-.297.265-.811.089-.514.089-1.285 0-.754-.089-1.26-.088-.506-.265-.819-.176-.313-.441-.45-.265-.136-.618-.136-.37 0-.643.137-.273.136-.45.45-.176.312-.264.818-.088.506-.088 1.26 0 .771.088 1.285.088.514.265.81.176.298.45.426.272.129.642.129zm12.974-1.782q.08.738-.073 1.372-.152.635-.578 1.1-.425.466-1.124.73-.698.266-1.694.266-.98 0-1.774-.257-.795-.257-1.349-.795-.554-.538-.85-1.357-.298-.819-.298-1.943 0-1.108.297-1.926.297-.82.851-1.357.554-.538 1.349-.803.795-.265 1.774-.265 1.847 0 2.738.907t.698 2.513h-2.215q.096-.514.016-.843-.08-.329-.257-.522-.177-.192-.434-.265-.257-.072-.546-.072-.385 0-.674.12-.29.12-.466.426-.176.305-.265.81-.088.507-.088 1.277 0 .803.096 1.317.097.514.281.81.185.298.474.41.289.113.674.113.241 0 .49-.064.249-.065.442-.25.192-.184.28-.53.089-.344.009-.922h2.216zm5.218 3.243h-2.633v-6.15h-1.991v-2.087h6.615v2.087H35.63v6.15zm6.15-1.493q.353 0 .602-.16.249-.161.41-.426.16-.265.224-.61.064-.346.064-.715v-.594q-.722.032-1.196.144-.474.113-.755.297-.28.185-.4.434-.121.249-.121.538 0 .482.329.787.329.305.843.305zm-1.156 1.718q-.594 0-1.044-.2-.45-.202-.763-.523-.313-.32-.473-.738-.16-.418-.16-.835 0-1.028.465-1.63.465-.602 1.188-.923.722-.321 1.59-.434.867-.112 1.653-.144v-.578q0-.546-.289-.843-.289-.297-.899-.297-.37 0-.618.112-.249.112-.385.297-.137.185-.169.425-.032.241.016.498h-2.184q-.08-.562.065-1.084.144-.521.562-.923.417-.401 1.148-.642.73-.241 1.822-.241 1.076 0 1.774.209.699.208 1.092.594.394.385.546.915.153.53.153 1.172v5.588H43.16v-.096q0-.225.08-.522.08-.297.177-.602l-.21-.113q-.16.321-.377.602-.216.281-.53.49-.312.209-.722.337-.41.129-.955.129zm6.535-.225v-8.237h4.062q1.397 0 2.216.457.819.458.819 1.582 0 .273-.104.562-.105.29-.322.546-.216.257-.57.45-.353.192-.85.289v.192q.61.032 1.027.217.417.185.666.45.25.265.354.578.104.313.104.618 0 .69-.281 1.132-.281.441-.747.698-.465.257-1.092.362-.626.104-1.316.104h-3.966zm2.553-1.654h1.284q.466 0 .747-.193.281-.192.281-.626 0-.45-.313-.626-.313-.177-.683-.177h-1.316v1.622zm0-3.275h.98q.417 0 .722-.217t.305-.667q0-.433-.265-.61-.265-.176-.634-.176h-1.108v1.67zm8.687-3.308v2.151h.915q1.06 0 1.758.241t1.124.65q.425.41.594.964.169.554.169 1.18 0 .482-.177 1.02t-.594.987q-.418.45-1.116.747-.698.297-1.758.297h-3.549v-8.237H58.4zm0 6.246h.738q.514 0 .82-.24.304-.242.304-.804t-.305-.81q-.305-.25-.819-.25H58.4v2.104zM67.1 31.27h-2.633v-6.15h-1.991v-2.087h6.615v2.087h-1.99v6.15zm8.093-2.746h2.28q.08.707-.144 1.253-.225.546-.707.931t-1.212.586q-.73.2-1.646.2-1.076 0-1.855-.312-.778-.313-1.276-.875t-.739-1.333q-.24-.77-.24-1.702 0-.915.232-1.726.233-.811.739-1.43.506-.617 1.292-.97.787-.354 1.895-.354 1.06 0 1.782.297.723.297 1.164.803.442.506.627 1.164.184.658.184 1.38 0 .226-.016.611t-.064.658h-5.106q0 .45.08.843.08.394.257.69.177.298.458.474.28.177.698.177.643 0 1.012-.305.37-.305.305-1.06zm-1.317-4.174q-.738 0-1.108.513-.369.514-.385 1.397h2.762v-.08q0-.915-.273-1.373-.273-.457-.996-.457zm14.516 4.704q0 .61-.273 1.068-.273.458-.771.763t-1.196.457q-.699.153-1.566.153-.803 0-1.469-.185t-1.132-.546q-.466-.361-.674-.907-.21-.546-.065-1.285h2.056q-.097.595.297.892.393.297 1.003.297.514 0 .875-.233.362-.233.362-.715 0-.497-.354-.642-.353-.144-.835-.144h-.963V26.34h.947q.466 0 .787-.201.321-.2.321-.667 0-.465-.329-.682-.33-.217-.795-.217-.257 0-.505.057-.25.056-.426.184-.177.129-.273.33-.096.2-.048.505h-1.991q-.145-.722.048-1.26t.65-.891q.458-.354 1.148-.53.69-.177 1.542-.177.706 0 1.34.128.635.129 1.116.41.482.28.771.706.29.426.29 1.004 0 .417-.137.739-.137.32-.37.562-.232.24-.53.393-.296.152-.634.217v.208q.82.145 1.3.643.483.497.483 1.252zm4.319.723q.353 0 .602-.16.249-.161.41-.426.16-.265.224-.61.065-.346.065-.715v-.594q-.723.032-1.197.144-.473.113-.754.297-.281.185-.402.434-.12.249-.12.538 0 .482.329.787.33.305.843.305zm-1.156 1.718q-.594 0-1.044-.2-.45-.202-.763-.523-.313-.32-.473-.738-.16-.418-.16-.835 0-1.028.465-1.63.465-.602 1.188-.923.723-.321 1.59-.434.867-.112 1.654-.144v-.578q0-.546-.29-.843-.289-.297-.899-.297-.369 0-.618.112t-.385.297q-.137.185-.169.425-.032.241.016.498h-2.184q-.08-.562.065-1.084.144-.521.562-.923.417-.401 1.148-.642.73-.241 1.822-.241 1.076 0 1.774.209.699.208 1.092.594.394.385.546.915.153.53.153 1.172v5.588h-2.553v-.096q0-.225.08-.522.08-.297.177-.602l-.209-.113q-.16.321-.377.602-.217.281-.53.49-.313.209-.723.337-.41.129-.955.129zm9.056-5.797q0 .418.321.675.321.257.723.257h1.043v-1.943h-1.124q-.385 0-.674.24-.29.241-.29.771zm-.273 5.572h-2.81q.112-.112.24-.345.13-.233.258-.522.128-.29.24-.602l.21-.586q.224-.675.698-1.084.473-.41 1.292-.474v-.209q-.674-.032-1.156-.224-.481-.193-.778-.482-.298-.289-.434-.642-.137-.354-.137-.723 0-.594.25-1.036.248-.441.666-.73.417-.29.955-.434.538-.144 1.116-.144h4.384v8.237h-2.634v-2.922h-.706q-.434 0-.65.216-.217.217-.33.795-.08.466-.265.932-.184.465-.41.979zm6.6 0v-8.237H111q1.397 0 2.215.457.82.458.82 1.582 0 .273-.105.562-.104.29-.321.546-.217.257-.57.45-.353.192-.851.289v.192q.61.032 1.027.217.418.185.667.45.249.265.353.578.104.313.104.618 0 .69-.28 1.132-.282.441-.747.698-.466.257-1.092.362-.626.104-1.317.104h-3.966zm2.552-1.654h1.285q.465 0 .746-.193.281-.192.281-.626 0-.45-.313-.626-.313-.177-.682-.177h-1.317v1.622zm0-3.275h.98q.417 0 .722-.217t.305-.667q0-.433-.265-.61-.265-.176-.634-.176h-1.108v1.67zm8.687 4.929h-2.633v-8.237h2.633V26.1h.642q.257 0 .394-.12.136-.121.249-.458.048-.145.168-.482.12-.337.281-.723.16-.385.321-.738.16-.353.305-.546h2.794q-.273.273-.465.626-.193.353-.338.739-.144.385-.289.786-.144.402-.32.755-.242.482-.555.715-.313.232-.827.345v.144q.61.113.924.37.313.257.521.803.273.722.619 1.533.345.81.827 1.421h-2.89q-.13-.16-.282-.498-.152-.337-.289-.722-.136-.386-.24-.73-.105-.346-.153-.539-.064-.273-.217-.433-.152-.16-.474-.16h-.706v3.082zm9.682-1.863q.016-.224.08-.69.065-.466.185-1.108.12-.642.297-1.421t.418-1.63l.417-1.525h2.601l-3.323 11.095h-2.762l.594-1.814-2.778-9.281h2.666l.417 1.477q.24.867.418 1.662.176.795.297 1.445.12.65.176 1.116.056.466.056.674h.241z" fill="#333"/></svg>